<?xml version="1.0" encoding="utf-8"?>
<!-- Generator: Adobe Illustrator 17.0.0, SVG Export Plug-In . SVG Version: 6.00 Build 0)  -->
<!DOCTYPE svg PUBLIC "-//W3C//DTD SVG 1.1//EN" "http://www.w3.org/Graphics/SVG/1.1/DTD/svg11.dtd">
<svg version="1.1" id="Camada_1" xmlns="http://www.w3.org/2000/svg" xmlns:xlink="http://www.w3.org/1999/xlink" x="0px" y="0px"
	 width="279.089px" height="43px" viewBox="0 0 279.089 43" enable-background="new 0 0 279.089 43" xml:space="preserve">
<g>
	<path fill="#BCBDC0" d="M0.499,36.071h2c1.25,0,1.751,0.75,1.751,1.748c0,0.999-0.75,1.749-1.751,1.749h-1v1.75h0.5v0.5h-1.5v-0.5
		h0.5v-4.75h-0.5V36.071z M2.499,38.818c1.001,0,1.25-0.498,1.25-1.248c0-0.749-0.5-1.251-1.25-1.251h-1v2.499H2.499z"/>
	<path fill="#BCBDC0" d="M7,39.318H5.75v1.75h0.499v0.5h-1.5v-0.5h0.5v-4.749h-0.5v-0.501h2c1.25,0,1.75,0.75,1.75,1.501
		c0,0.75-0.5,1.25-1.25,1.499l1.25,2.001h0.5v0.499h-0.75L7,39.318z M6.75,38.818c1,0,1.25-0.498,1.25-1.248
		c0-0.749-0.501-1.251-1.25-1.251h-1v2.25h1V38.818z"/>
	<path fill="#BCBDC0" d="M9.25,38.818c0-1.499,1.249-2.747,2.75-2.747c1.5,0,2.749,1.248,2.749,2.747c0,1.501-1.249,2.75-2.749,2.75
		C10.499,41.568,9.25,40.318,9.25,38.818 M14.5,38.818c0-1.248-1-2.25-2.25-2.25S10,37.57,10,38.818c0,1.251,0.999,2.25,2.25,2.25
		S14.5,40.068,14.5,38.818"/>
	<path fill="#BCBDC0" d="M19.999,40.818c-0.5,0.499-1,0.749-1.75,0.749c-1.5,0-2.75-1.001-2.75-2.75c0-1.499,1.25-2.747,2.75-2.747
		c0.75,0,1.25,0.248,1.75,0.75v-0.502h0.25v1.5h-0.498C19.5,37.068,19,36.82,18,36.82c-1.25,0-2.25,0.998-2.25,2.25
		c0,1.248,1,2.247,2.25,2.247c0.75,0,1.25-0.25,1.751-0.751v-1.249H18v-0.5h2.249v2.5h-0.498v-0.499H19.999z"/>
	<path fill="#BCBDC0" d="M23.5,39.318h-1.251v1.75h0.501v0.5h-1.5v-0.5h0.498v-4.749H21.25v-0.501h1.998
		c1.251,0,1.752,0.75,1.752,1.501c0,0.75-0.501,1.25-1.251,1.499L25,40.819h0.499v0.499H24.75L23.5,39.318z M23.248,38.818
		c1.001,0,1.251-0.498,1.251-1.248c0-0.749-0.499-1.251-1.251-1.251h-0.999v2.25h0.999V38.818z"/>
	<path fill="#BCBDC0" d="M31.249,41.568h-1.5v-0.5h0.499l-0.499-0.999h-2.5l-0.5,0.999h0.5v0.5h-1.5v-0.5h0.5l1.75-4.749h-0.251
		v-0.501h1.75v0.501h-0.499l1.749,4.749h0.501V41.568z M27.498,39.568h2.251l-1-3L27.498,39.568z"/>
	<polygon fill="#BCBDC0" points="37.748,41.568 36.249,41.568 36.249,41.068 36.749,41.068 36.749,36.821 34.749,39.82 
		34.498,39.82 32.749,36.821 32.749,41.068 33.25,41.068 33.25,41.568 31.747,41.568 31.747,41.068 32.248,41.068 32.248,36.568 
		31.747,36.568 31.747,36.071 32.749,36.071 34.749,39.071 36.749,36.071 37.748,36.071 37.748,36.568 37.249,36.568 37.249,41.068 
		37.748,41.068 	"/>
	<path fill="#BCBDC0" d="M43.249,41.568h-1.5v-0.5h0.499l-0.499-0.999h-2.501l-0.501,0.999h0.501v0.5h-1.5v-0.5h0.5l1.75-4.749
		h-0.501v-0.501h1.751v0.501h-0.5l1.751,4.749h0.499v0.5L43.249,41.568L43.249,41.568z M39.748,39.568h2.25l-1-3L39.748,39.568z"/>
	<path fill="#BCBDC0" d="M45.249,38.818c0-1.499,1.25-2.747,2.75-2.747s2.749,1.248,2.749,2.747c0,1.501-1.249,2.75-2.749,2.75
		C46.498,41.568,45.249,40.318,45.249,38.818 M50.249,38.818c0-1.248-1.001-2.25-2.25-2.25c-1.25,0-2.25,1.002-2.25,2.25
		c0,1.251,1.001,2.25,2.25,2.25C49.247,41.068,50.249,40.068,50.249,38.818"/>
	<path fill="#BCBDC0" d="M51.248,36.071h1.999c1.251,0,1.75,0.75,1.75,1.748c0,0.999-0.75,1.749-1.75,1.749h-1v1.75h0.501v0.5h-1.5
		v-0.5h0.5v-4.75h-0.5V36.071z M53.247,38.818c1.001,0,1.251-0.498,1.251-1.248c0-0.749-0.501-1.251-1.251-1.251h-1v2.499H53.247z"
		/>
	<polygon fill="#BCBDC0" points="58.749,36.568 56.498,36.568 56.498,38.568 58.749,38.568 58.749,39.071 56.498,39.071 
		56.498,41.068 58.998,41.068 58.998,40.318 59.246,40.318 59.246,41.568 55.497,41.568 55.497,41.068 55.998,41.068 55.998,36.568 
		55.497,36.568 55.497,36.071 59.246,36.071 59.246,37.318 58.749,37.318 	"/>
	<path fill="#BCBDC0" d="M62.248,39.318h-1.25v1.75h0.499v0.5h-1.5v-0.5h0.501v-4.749h-0.501v-0.501h2.001
		c1.249,0,1.75,0.75,1.75,1.501c0,0.75-0.501,1.25-1.25,1.499l1.25,2.001h0.5v0.499h-0.75L62.248,39.318z M61.998,38.818
		c1,0,1.249-0.498,1.249-1.248c0-0.749-0.5-1.251-1.249-1.251h-1v2.25h1V38.818z"/>
	<path fill="#BCBDC0" d="M69.997,41.568h-1.5v-0.5h0.5l-0.5-0.999h-2.5l-0.5,0.999h0.5v0.5h-1.5v-0.5h0.75l1.75-4.749h-0.499v-0.501
		h1.749v0.501h-0.5l1.751,4.749h0.499V41.568z M66.247,39.568h2.25l-1-3L66.247,39.568z"/>
	<path fill="#BCBDC0" d="M72.746,36.071c0.75,0,1.25,0.248,1.751,0.75v-0.75h0.5v1.499h-0.5c-0.251-0.749-1-1.251-1.751-1.251
		c-1.249,0-2.25,1-2.25,2.25c0,1.251,1.001,2.25,2.25,2.25c0.75,0,1.5-0.252,1.751-0.999l0.5,0.249
		c-0.5,0.75-1.25,0.999-2.251,0.999c-1.5,0-2.75-1.248-2.75-2.748C69.997,37.068,71.246,36.071,72.746,36.071"/>
	<polygon fill="#BCBDC0" points="75.496,36.071 76.996,36.071 76.996,36.568 76.497,36.568 76.497,41.068 76.996,41.068 
		76.996,41.568 75.496,41.568 75.496,41.068 75.997,41.068 75.997,36.568 75.496,36.568 	"/>
	<path fill="#BCBDC0" d="M77.497,38.818c0-1.499,1.25-2.747,2.75-2.747s2.749,1.248,2.749,2.747c0,1.501-1.249,2.75-2.749,2.75
		S77.497,40.318,77.497,38.818 M82.495,38.818c0-1.248-0.999-2.25-2.248-2.25c-1.25,0-2.25,1.002-2.25,2.25
		c0,1.251,1,2.25,2.25,2.25S82.495,40.068,82.495,38.818"/>
	<polygon fill="#BCBDC0" points="88.747,36.568 88.246,36.568 88.246,41.568 87.997,41.568 84.496,36.821 84.496,41.068 
		85.247,41.068 85.247,41.568 83.747,41.568 83.747,41.068 84.247,41.068 84.247,36.568 83.747,36.568 83.747,36.071 84.745,36.071 
		87.746,40.567 87.746,36.568 87.247,36.568 87.247,36.071 88.747,36.071 	"/>
	<path fill="#BCBDC0" d="M94.247,41.568h-1.5v-0.5h0.499l-0.499-0.999h-2.5l-0.5,0.999h0.5v0.5h-1.5v-0.5h0.5l1.75-4.749h-0.5
		v-0.501h1.75v0.501h-0.5l1.751,4.749h0.499v0.5H94.247z M90.496,39.568h2.251l-1.001-3L90.496,39.568z"/>
	<polygon fill="#BCBDC0" points="94.495,36.071 95.995,36.071 95.995,36.568 95.495,36.568 95.495,41.068 97.746,41.068 
		97.746,40.318 98.245,40.318 98.245,41.568 94.495,41.568 94.495,41.068 94.997,41.068 94.997,36.568 94.495,36.568 	"/>
	<path fill="#BCBDC0" d="M102.246,39.318h-1.25v1.75h0.5v0.5h-1.5v-0.5h0.5v-4.749h-0.5v-0.501h2c1.249,0,1.75,0.75,1.75,1.501
		c0,0.75-0.501,1.25-1.25,1.499l1.25,2.001h0.5v0.499h-0.75L102.246,39.318z M102.246,38.818c0.999,0,1.25-0.498,1.25-1.248
		c0-0.749-0.5-1.251-1.25-1.251h-1v2.25h1V38.818z"/>
	<polygon fill="#BCBDC0" points="108.246,36.568 105.995,36.568 105.995,38.568 108.246,38.568 108.246,39.071 105.995,39.071 
		105.995,41.068 108.495,41.068 108.495,40.318 108.997,40.318 108.997,41.568 104.996,41.568 104.996,41.068 105.496,41.068 
		105.496,36.568 104.996,36.568 104.996,36.071 108.746,36.071 108.746,37.318 108.246,37.318 	"/>
	<path fill="#BCBDC0" d="M113.996,40.818c-0.5,0.499-1.001,0.749-1.751,0.749c-1.5,0-2.75-1.001-2.75-2.75
		c0-1.499,1.25-2.747,2.75-2.747c0.75,0,1.251,0.248,1.751,0.75v-0.502h0.499v1.5h-0.499c-0.251-0.75-0.75-0.998-1.751-0.998
		c-1.25,0-2.25,0.998-2.25,2.25c0,1.248,0.999,2.247,2.25,2.247c0.75,0,1.251-0.25,1.751-0.751v-1.249h-1.751v-0.5h2.25v2.5h-0.499
		V40.818z"/>
	<polygon fill="#BCBDC0" points="115.245,36.071 116.746,36.071 116.746,36.568 116.245,36.568 116.245,41.068 116.746,41.068 
		116.746,41.568 115.245,41.568 115.245,41.068 115.746,41.068 115.746,36.568 115.245,36.568 	"/>
	<path fill="#BCBDC0" d="M117.246,38.818c0-1.499,1.249-2.747,2.749-2.747s2.751,1.248,2.751,2.747c0,1.501-1.251,2.75-2.751,2.75
		S117.246,40.318,117.246,38.818 M122.245,38.818c0-1.248-1-2.25-2.25-2.25c-1.249,0-2.25,1.002-2.25,2.25
		c0,1.251,1.001,2.25,2.25,2.25C121.245,41.068,122.245,40.068,122.245,38.818"/>
	<polygon fill="#BCBDC0" points="128.495,36.568 127.994,36.568 127.994,41.568 127.744,41.568 124.245,36.821 124.245,41.068 
		124.745,41.068 124.745,41.568 123.246,41.568 123.246,41.068 123.744,41.068 123.744,36.568 123.246,36.568 123.246,36.071 
		124.245,36.071 127.495,40.567 127.495,36.568 126.995,36.568 126.995,36.071 128.495,36.071 	"/>
	<path fill="#BCBDC0" d="M133.745,41.568h-1.5v-0.5h0.5l-0.5-0.999h-2.5l-0.5,0.999h1.001v0.5h-1.502v-0.5h0.501l1.751-4.749h-0.501
		v-0.501h1.75v0.501h-0.499l1.749,4.749h0.501v0.5H133.745z M130.245,39.568h2.25l-1.001-3L130.245,39.568z"/>
	<polygon fill="#BCBDC0" points="134.245,36.071 135.745,36.071 135.745,36.568 135.245,36.568 135.245,41.068 137.495,41.068 
		137.495,40.318 137.995,40.318 137.995,41.568 134.245,41.568 134.245,41.068 134.745,41.068 134.745,36.568 134.245,36.568 	"/>
	<path fill="#BCBDC0" d="M139.745,36.071h1.749c1.75,0,2.751,0.998,2.751,2.747c0,1.501-1.001,2.75-2.751,2.75h-1.749v-0.5h0.501
		v-4.749h-0.501V36.071z M141.493,41.068c1.501,0,2.251-0.999,2.251-2.25c0-1.248-0.75-2.25-2.251-2.25h-0.75v4.5H141.493
		L141.493,41.068z"/>
	<path fill="#BCBDC0" d="M145.245,38.818c0-1.499,1.251-2.747,2.751-2.747s2.749,1.248,2.749,2.747c0,1.501-1.249,2.75-2.749,2.75
		C146.243,41.568,145.245,40.318,145.245,38.818 M150.245,38.818c0-1.248-1.002-2.25-2.25-2.25c-1.251,0-2.251,1.002-2.251,2.25
		c0,1.251,1,2.25,2.251,2.25C149.243,41.068,150.245,40.068,150.245,38.818"/>
	<polygon fill="#BCBDC0" points="157.743,36.568 157.493,36.568 157.493,41.568 156.993,41.568 153.745,36.821 153.745,41.068 
		154.243,41.068 154.243,41.568 152.743,41.568 152.743,41.068 153.243,41.068 153.243,36.568 152.743,36.568 152.743,36.071 
		153.745,36.071 156.993,40.567 156.993,36.568 156.243,36.568 156.243,36.071 157.743,36.071 	"/>
	<path fill="#BCBDC0" d="M158.243,38.818c0-1.499,1.25-2.747,2.75-2.747c1.499,0,2.75,1.248,2.75,2.747
		c0,1.501-1.251,2.75-2.75,2.75S158.243,40.318,158.243,38.818 M163.242,38.818c0-1.248-0.999-2.25-2.249-2.25
		s-2.25,1.002-2.25,2.25c0,1.251,0.999,2.25,2.25,2.25C162.493,41.068,163.242,40.068,163.242,38.818"/>
	<path fill="#BCBDC0" d="M166.743,39.318h-1.25v1.75h0.5v0.5h-1.5v-0.5h0.5v-4.749h-0.5v-0.501h2c1.25,0,1.75,0.75,1.75,1.501
		c0,0.75-0.5,1.25-1.251,1.499l1.251,2.001h0.5v0.499h-0.75L166.743,39.318z M166.495,38.818c1,0,1.25-0.498,1.25-1.248
		c0-0.749-0.5-1.251-1.25-1.251h-1.001v2.25h1.001V38.818z"/>
	<polygon fill="#BCBDC0" points="172.745,36.568 171.493,36.568 171.493,41.068 171.995,41.068 171.995,41.568 170.243,41.568 
		170.243,41.068 170.743,41.068 170.743,36.568 169.495,36.568 169.495,37.318 168.993,37.318 168.993,36.071 173.242,36.071 
		173.242,37.318 172.745,37.318 	"/>
	<polygon fill="#BCBDC0" points="176.992,36.568 174.741,36.568 174.741,38.568 176.992,38.568 176.992,39.071 174.741,39.071 
		174.741,41.068 177.245,41.068 177.245,40.318 177.493,40.318 177.493,41.568 173.743,41.568 173.743,41.068 174.245,41.068 
		174.245,36.568 173.743,36.568 173.743,36.071 177.493,36.071 177.493,37.318 176.992,37.318 	"/>
	<path fill="#BCBDC0" d="M37.014,12.622c0,11,9.239,16.056,16.497,10.557c1.98-1.1,3.08-3.517,3.08-5.939l0,0
		c0-0.219,0-0.439,0-0.439c0.88,1.541,1.319,3.299,1.319,5.059c0,7.7-8.359,11.878-16.716,9.021
		c-4.62-2.861-7.699-7.701-7.699-13.419l0,0c0-4.62,1.979-8.578,5.059-11.439C37.674,7.782,37.014,10.201,37.014,12.622
		 M84.526,9.981c2.2,0,3.74,1.1,3.74,3.08c2.419-0.66,3.3-2.2,3.3-3.96c0-4.839-5.279-7.258-11.219-7.258H69.789v8.139h14.737V9.981
		z M66.929,17.02c0,8.58-7.038,15.617-16.277,15.838c6.159-0.222,10.118-5.501,10.118-11.22v-0.221
		c0-5.938-4.179-11.437-10.559-11.437c-3.958,0-6.378,3.3-6.378,6.819l0,0c0,3.521,2.42,6.82,6.378,6.82
		c-6.378,0-10.558-5.5-10.558-11.439v0.22c0-5.939,3.96-11.218,10.558-11.218h0.22C59.891,1.184,66.929,8.222,66.929,17.02
		L66.929,17.02z M10.618,1.843H0.499l20.457,30.574h10.118L10.618,1.843z M20.737,1.843h10.118V26.48L20.737,11.521V1.843z
		 M0.499,8.003V32.2h10.119v-9.238L0.499,8.003z M93.984,24.281l5.499,8.137H87.826l-3.959-6.156c3.299-0.223,7.038-0.66,9.679-1.76
		C93.764,24.501,93.764,24.281,93.984,24.281 M92.445,21.86c3.52-1.538,5.938-4.838,5.938-9.238l0,0c0-3.08-0.879-5.5-2.859-7.26
		c-1.979-1.979-4.839-3.298-9.458-3.519c-0.439,0-0.88,0-1.319,0h-0.221c0.441,0,1.101,0,1.54,0c5.06,0.439,8.139,2.639,8.139,7.04
		v0.219c0,4.619-3.52,7.259-9.458,7.259h-2.641v7.26C82.106,23.62,88.925,23.62,92.445,21.86 M99.704,1.843h28.155v7.918H99.704
		V1.843z M130.28,9.762h25.955V1.844H130.28V9.762z M130.28,24.281h25.955V32.2H130.28V24.281z M69.789,32.417h10.118V13.062H69.789
		V32.417z M118.841,32.417h-10.119V13.062h10.119V32.417z M130.28,20.981h20.236v-7.919H130.28V20.981z"/>
	<rect x="222.038" y="24.249" fill="#BCBDC0" width="24.815" height="7.763"/>
	<path fill="#BCBDC0" d="M234.191,16.144c5.739-4.218,9.115-14.178,0.676-14.178c6.752,0,11.647,4.051,11.647,9.622l0,0
		c0,4.556-2.363,6.922-5.908,9.284l-0.338,0.341h-13.674L234.191,16.144z"/>
	<path fill="#BCBDC0" d="M253.772,6.187c-3.037,2.869-4.895,6.752-4.895,11.141l0,0c0,5.57,2.871,10.467,7.597,13.167
		c8.102,2.871,16.206-1.181,16.206-8.61c0-1.854-0.506-3.544-1.351-5.063c0,0.169,0,0.335,0,0.506l0,0
		c0,2.365-1.182,4.556-3.039,5.74c-6.921,5.233-16.037,0.336-16.037-10.129C252.085,10.744,252.759,8.38,253.772,6.187"/>
	<path fill="#BCBDC0" d="M278.589,17.327c0,8.442-4.221,15.192-13.168,15.362c6.077-0.17,9.792-5.234,9.792-10.971v-0.17
		c0-5.74-4.052-10.974-10.298-11.143c-3.713,0-6.077,3.207-6.077,6.584l0,0c0,3.545,2.363,6.583,6.077,6.754
		c-6.246,0-10.129-5.234-10.129-10.974V12.6c0-5.739,3.883-10.973,10.129-10.973h0.168C274.198,1.965,278.589,8.719,278.589,17.327
		L278.589,17.327z"/>
	<path fill="#BCBDC0" d="M176.796,7.031c0.676-3.545-3.038-5.233-6.583-4.558c-3.712,0.844-6.247,2.871-8.777,6.077l6.414,5.57
		c2.363-2.532,4.052-3.713,5.74-3.713c0.676,0,1.182,0.169,1.52,0.339C176.121,9.394,176.628,8.213,176.796,7.031"/>
	<rect x="161.603" y="24.249" fill="#BCBDC0" width="24.815" height="7.763"/>
	<path fill="#BCBDC0" d="M163.798,21.213h16.205l0.338-0.171c3.545-2.196,5.907-4.727,5.907-9.285l0,0
		c0-5.571-4.895-9.623-11.647-9.623c8.272,0,2.533,9.96-3.207,14.181L163.798,21.213z"/>
	<path fill="#BCBDC0" d="M191.82,12.938c0,10.635,9.116,15.529,16.037,10.129c1.857-1.184,3.038-3.375,3.038-5.74l0,0
		c0-0.171,0-0.337,0-0.506c0.844,1.349,1.351,3.208,1.351,5.063c0,7.43-8.103,11.481-16.206,8.61
		c-4.558-2.699-7.597-7.427-7.597-13.167l0,0c0-4.389,1.857-8.272,4.896-11.141C192.327,8.38,191.82,10.744,191.82,12.938"/>
	<path fill="#BCBDC0" d="M220.855,17.327c0-8.609-6.92-15.362-16.037-15.362h-0.169c-6.246,0-10.129,5.233-10.129,10.973v0.168
		c0,5.739,3.883,10.973,10.129,10.973c-3.713,0-6.077-3.208-6.077-6.752v-0.171c0-3.374,2.364-6.582,6.077-6.582
		c6.246,0,10.298,5.233,10.298,11.144v0.165c0,5.571-3.715,10.806-9.792,10.976C213.934,32.52,220.855,25.77,220.855,17.327
		L220.855,17.327z"/>
	<path fill="#BCBDC0" d="M235.71,10.744c-0.337-0.17-1.012-0.339-1.519-0.339c-1.688,0-3.208,1.013-5.74,3.713l-6.415-5.57
		c2.532-3.207,5.063-5.233,8.778-6.077c3.544-0.675,7.259,1.013,6.583,4.558C237.061,8.213,236.385,9.394,235.71,10.744"/>
</g>
</svg>
