<?xml version="1.0" encoding="utf-8"?>
<!-- Generator: Adobe Illustrator 17.0.0, SVG Export Plug-In . SVG Version: 6.00 Build 0)  -->
<!DOCTYPE svg PUBLIC "-//W3C//DTD SVG 1.1//EN" "http://www.w3.org/Graphics/SVG/1.1/DTD/svg11.dtd">
<svg version="1.1" id="Camada_1" xmlns="http://www.w3.org/2000/svg" xmlns:xlink="http://www.w3.org/1999/xlink" x="0px" y="0px"
	 width="142.475px" height="43px" viewBox="0 0 142.475 43" enable-background="new 0 0 142.475 43" xml:space="preserve">
<g>
	<path fill="#BCBDC0" d="M35.787,38.957l9.706-8.223c0.942-0.809,1.752-1.483,2.425-2.156c0.674-0.675,1.213-1.213,1.619-1.888
		c0.404-0.539,0.673-1.213,0.943-1.752c0.135-0.54,0.27-1.214,0.27-1.753c0-1.348-0.404-2.426-1.349-3.235
		c-0.809-0.809-1.887-1.079-3.235-1.079c-1.349,0-2.427,0.404-3.37,1.079c-0.944,0.674-2.022,1.753-3.1,3.235l-3.505-2.696
		c0.674-0.944,1.348-1.752,2.022-2.561s1.483-1.348,2.292-1.888s1.751-0.944,2.695-1.213c0.943-0.27,2.021-0.405,3.37-0.405
		c1.348,0,2.561,0.27,3.775,0.54c1.078,0.404,2.155,0.944,2.963,1.752c0.812,0.674,1.485,1.618,1.89,2.696
		c0.404,1.079,0.673,2.156,0.673,3.37v0.135c0,1.078-0.135,2.157-0.404,2.966c-0.269,0.943-0.809,1.752-1.349,2.561
		c-0.538,0.809-1.347,1.619-2.291,2.562c-0.943,0.809-2.022,1.752-3.235,2.83l-5.796,4.854h13.345v4.313H35.922v-4.043h-0.135
		V38.957z"/>
	<path fill="#BCBDC0" d="M72.99,42.866c-2.156,0-4.178-0.404-5.932-1.078c-1.751-0.809-3.369-1.752-4.582-3.101
		c-1.213-1.348-2.292-2.831-2.965-4.583c-0.675-1.753-1.079-3.641-1.079-5.526v-0.136c0-2.022,0.404-3.909,1.079-5.526
		c0.673-1.752,1.752-3.236,3.101-4.583c1.346-1.348,2.83-2.426,4.582-3.101c1.752-0.809,3.774-1.213,5.932-1.213
		c2.156,0,4.178,0.404,5.932,1.078c1.752,0.81,3.369,1.752,4.582,3.101c1.349,1.348,2.292,2.831,2.967,4.583
		c0.673,1.752,1.077,3.639,1.077,5.661v0.136c0,2.021-0.404,3.773-1.077,5.526c-0.675,1.752-1.754,3.235-3.103,4.583
		c-1.346,1.349-2.83,2.426-4.582,3.101C77.17,42.462,75.147,42.866,72.99,42.866 M73.125,38.283c1.348,0,2.695-0.271,3.773-0.809
		c1.214-0.539,2.158-1.214,2.967-2.156c0.808-0.945,1.482-1.89,1.888-3.102c0.404-1.213,0.673-2.426,0.673-3.909v-0.134
		c0-1.349-0.269-2.696-0.673-3.91c-0.405-1.212-1.08-2.292-2.022-3.1c-0.81-0.944-1.888-1.618-2.966-2.157
		c-1.214-0.539-2.427-0.809-3.775-0.809s-2.695,0.27-3.773,0.809c-1.213,0.539-2.158,1.213-2.965,2.157
		c-0.81,0.944-1.484,1.888-1.89,3.1c-0.404,1.214-0.673,2.427-0.673,3.91v0.134c0,1.349,0.269,2.696,0.673,3.909
		c0.405,1.212,1.08,2.292,2.023,3.102c0.809,0.942,1.888,1.617,2.965,2.156C70.43,38.012,71.642,38.283,73.125,38.283"/>
	<path fill="#BCBDC0" d="M89.571,38.957l9.706-8.223c0.943-0.809,1.751-1.483,2.426-2.156c0.674-0.675,1.214-1.213,1.618-1.888
		c0.404-0.539,0.673-1.213,0.942-1.752c0.135-0.54,0.271-1.214,0.271-1.753c0-1.348-0.404-2.426-1.349-3.235
		c-0.809-0.809-1.887-1.079-3.235-1.079s-2.426,0.404-3.369,1.079c-0.944,0.674-2.023,1.753-3.101,3.235l-3.505-2.696
		c0.674-0.944,1.348-1.752,2.022-2.561s1.482-1.348,2.291-1.888s1.752-0.944,2.696-1.213c0.943-0.27,2.021-0.405,3.369-0.405
		c1.349,0,2.563,0.27,3.775,0.54c1.077,0.404,2.156,0.944,2.965,1.752c0.809,0.674,1.483,1.618,1.888,2.696
		c0.404,1.079,0.673,2.156,0.673,3.37v0.135c0,1.078-0.133,2.157-0.404,2.966c-0.269,0.943-0.808,1.752-1.348,2.561
		c-0.539,0.809-1.348,1.619-2.292,2.562c-0.942,0.809-2.021,1.752-3.234,2.83l-5.796,4.854h13.346v4.313H89.703v-4.043h-0.133
		V38.957z"/>
	<path fill="#BCBDC0" d="M126.775,42.866c-2.158,0-4.18-0.404-5.932-1.078c-1.753-0.809-3.371-1.752-4.584-3.101
		c-1.348-1.348-2.29-2.831-2.966-4.583c-0.673-1.753-1.078-3.641-1.078-5.526v-0.136c0-2.022,0.405-3.909,1.078-5.526
		c0.676-1.752,1.753-3.236,3.101-4.583c1.349-1.348,2.832-2.426,4.584-3.101c1.752-0.809,3.773-1.213,5.931-1.213
		c2.158,0,4.18,0.404,5.932,1.078c1.752,0.81,3.369,1.752,4.582,3.101c1.215,1.348,2.292,2.831,2.967,4.583
		c0.673,1.752,1.077,3.639,1.077,5.661v0.136c0,2.021-0.404,3.773-1.077,5.526c-0.675,1.752-1.752,3.235-3.101,4.583
		c-1.348,1.349-2.831,2.426-4.584,3.101C130.954,42.462,128.933,42.866,126.775,42.866 M126.909,38.283
		c1.348,0,2.696-0.271,3.775-0.809c1.212-0.539,2.156-1.214,2.965-2.156c0.809-0.945,1.481-1.89,1.888-3.102
		c0.404-1.213,0.673-2.426,0.673-3.909v-0.134c0-1.349-0.269-2.696-0.673-3.91c-0.406-1.212-1.079-2.292-1.888-3.1
		c-0.809-0.944-1.888-1.618-2.965-2.157c-1.213-0.539-2.428-0.809-3.775-0.809c-1.349,0-2.696,0.27-3.774,0.809
		c-1.214,0.539-2.156,1.213-2.966,2.157c-0.809,0.944-1.482,1.888-1.887,3.1c-0.404,1.214-0.674,2.427-0.674,3.91v0.134
		c0,1.349,0.27,2.696,0.674,3.909c0.404,1.212,1.078,2.292,2.022,3.102c0.808,0.942,1.887,1.617,2.965,2.156
		C124.214,38.012,125.562,38.283,126.909,38.283"/>
	<path fill="#BCBDC0" d="M38.887,5.257c-0.136,0-0.27,0-0.54,0v1.752c0.404,0,0.674,0.135,1.079,0.135v0.944h-3.504V7.009
		c0.27,0,0.674-0.135,1.078-0.135V1.212c-0.404,0-0.674-0.135-1.078-0.135V0.133h0.943c0.404,0,1.348,0,2.157,0
		c1.888,0,2.966,0.944,2.966,2.427C41.986,4.044,40.774,5.257,38.887,5.257 M38.887,1.347c-0.136,0-0.404,0-0.54,0v2.562
		c0.136,0,0.27,0,0.404,0c0.944,0,1.618-0.539,1.618-1.348S39.964,1.347,38.887,1.347 M46.166,8.088c-2.427,0-3.64-1.483-3.64-3.909
		c0-2.562,1.753-4.18,3.909-4.18c2.158,0,3.641,1.214,3.641,3.91C50.075,6.605,48.322,8.088,46.166,8.088 M46.301,1.347
		c-1.08,0-2.022,0.81-2.022,2.696c0,1.618,0.673,2.696,2.022,2.696c1.077,0,2.156-0.809,2.156-2.696
		C48.457,2.291,47.649,1.347,46.301,1.347 M55.197,7.953l-1.89-3.236h-0.269v2.157c0.269,0,0.54,0,0.674,0.135v0.944h-3.234V7.009
		c0.27,0,0.675-0.135,1.079-0.135V1.212c-0.404,0-0.674-0.135-1.079-0.135V0.133h0.943c0.27,0,1.349,0,2.426,0
		c1.754,0,2.831,0.54,2.831,2.157c0,1.079-0.809,1.888-1.886,2.157c0.134,0.134,0.269,0.404,0.404,0.539l1.213,1.888
		c0.269,0,0.539,0.135,0.809,0.135v0.944L55.197,7.953L55.197,7.953z M53.714,1.347c-0.27,0-0.405,0-0.538,0v2.292
		c0.133,0,0.269,0,0.538,0c0.944,0,1.484-0.404,1.484-1.213C55.063,1.752,54.658,1.347,53.714,1.347 M62.611,2.291
		c0-0.404-0.136-0.674-0.136-0.944h-1.213v5.527c0.404,0,0.673,0.135,1.077,0.135v0.944h-3.504V7.009
		c0.271,0,0.675-0.135,1.078-0.135V1.347h-1.348c0,0.27-0.135,0.675-0.135,0.944h-1.213V0.134h6.47v2.157H62.611z M71.373,1.213
		v3.774c0,2.022-1.214,3.101-3.235,3.101c-2.426,0-3.1-1.348-3.1-2.831V1.213c-0.271,0-0.54-0.135-0.676-0.135V0.134h3.102v0.944
		c-0.27,0-0.539,0.135-0.808,0.135v3.909c0,0.944,0.269,1.753,1.617,1.753c1.213,0,1.617-0.54,1.617-1.888V1.213
		c-0.27,0-0.54,0-0.809-0.135V0.134h3.1v0.944C71.913,1.078,71.642,1.213,71.373,1.213 M79.19,4.987v2.696
		c-0.809,0.27-1.752,0.539-2.696,0.539c-2.425,0-3.909-1.482-3.909-3.909c0-2.561,1.617-4.179,4.313-4.179
		c0.675,0,1.483,0.135,2.158,0.27v2.157h-1.214c-0.136-0.404-0.136-0.674-0.136-0.944c-0.269-0.135-0.673-0.135-0.942-0.135
		c-1.483,0-2.563,0.944-2.563,2.696c0,1.618,0.944,2.696,2.563,2.696c0.404,0,0.674,0,0.942-0.135V4.986
		c-0.404,0-0.673-0.134-0.942-0.134V3.908h3.234v0.944C79.595,4.853,79.461,4.853,79.19,4.987 M84.719,7.953V7.009
		c0.27,0,0.538-0.135,0.809-0.135L85.124,5.93h-2.832l-0.269,0.944c0.269,0,0.54,0.135,0.809,0.135v0.944h-2.965V7.009
		c0.134,0,0.404-0.135,0.674-0.135l2.427-6.74h1.886l2.427,6.74c0.136,0,0.404,0,0.674,0.135v0.944H84.719z M84.043,2.831
		c-0.134-0.404-0.269-0.809-0.404-1.213l0,0c-0.136,0.405-0.269,0.809-0.404,1.348l-0.54,1.887h2.157L84.043,2.831z M88.088,7.953
		V7.009c0.27,0,0.675-0.135,1.079-0.135V1.212c-0.404,0-0.675-0.135-1.079-0.135V0.133h3.506v0.944c-0.271,0-0.675,0.135-1.08,0.135
		v5.527h1.484c0-0.27,0.134-0.674,0.134-0.943h1.08v2.157L88.088,7.953L88.088,7.953z"/>
	<path fill="#BCBDC0" d="M12.196,0.269C5.321,2.965,1.008,10.244,1.008,21.432v16.984c0,0,1.483-10.918,11.189-14.019V0.269z"/>
	<path fill="#BCBDC0" d="M15.567,26.015c-4.044,0.81-9.977,4.046-11.729,8.628c8.627-10.515,26.287-0.404,27.095-20.085
		c0.27-6.201,0.27-14.02,0.27-14.02c-9.167,0.54-15.636,2.966-15.636,2.966L15.567,26.015L15.567,26.015z"/>
	<path fill="#BCBDC0" d="M14.487,31.812c0,0-9.436,0.808-10.245,6.067c-0.675,4.177,10.245,4.313,10.245,4.313V31.812z"/>
</g>
<polygon fill="#5C5A5B" points="434.889,401.255 434.889,395.009 439.1,395.009 439.1,395.751 435.715,395.751 435.715,397.678 
	438.648,397.678 438.648,398.416 435.715,398.416 435.715,401.255 "/>
<path fill="#5C5A5B" d="M443.037,401.255v-0.666c-0.352,0.506-0.831,0.769-1.436,0.769c-0.271,0-0.518-0.054-0.746-0.155
	c-0.233-0.107-0.404-0.231-0.516-0.386c-0.116-0.155-0.191-0.344-0.235-0.57c-0.031-0.151-0.05-0.386-0.05-0.719v-2.795h0.769v2.506
	c0,0.399,0.014,0.671,0.05,0.809c0.044,0.204,0.143,0.359,0.302,0.475c0.155,0.112,0.352,0.17,0.582,0.17
	c0.229,0,0.446-0.058,0.646-0.173c0.197-0.12,0.344-0.281,0.426-0.484c0.085-0.201,0.126-0.493,0.126-0.881v-2.421h0.769v4.522
	h-0.687V401.255z"/>
<path fill="#5C5A5B" d="M444.921,401.255v-4.522h0.69v0.644c0.334-0.497,0.812-0.746,1.437-0.746c0.276,0,0.526,0.049,0.754,0.146
	c0.229,0.099,0.401,0.228,0.508,0.387c0.118,0.16,0.198,0.348,0.245,0.561c0.026,0.143,0.039,0.391,0.039,0.75v2.781h-0.765V398.5
	c0-0.31-0.03-0.541-0.093-0.696c-0.057-0.16-0.162-0.28-0.311-0.369c-0.16-0.093-0.333-0.142-0.538-0.142
	c-0.328,0-0.606,0.102-0.844,0.311c-0.237,0.203-0.354,0.595-0.354,1.182v2.47h-0.768V401.255z"/>
<path fill="#5C5A5B" d="M452.703,401.255v-0.573c-0.286,0.449-0.711,0.676-1.266,0.676c-0.359,0-0.688-0.103-0.99-0.302
	c-0.308-0.2-0.537-0.477-0.705-0.831c-0.166-0.358-0.246-0.77-0.246-1.227c0-0.453,0.073-0.866,0.225-1.23
	c0.147-0.369,0.372-0.647,0.675-0.849c0.302-0.19,0.64-0.289,1.009-0.289c0.273,0,0.513,0.059,0.728,0.165
	c0.212,0.119,0.388,0.271,0.521,0.457v-2.243h0.763v6.246H452.703z M450.28,398.998c0,0.579,0.122,1.01,0.368,1.297
	c0.243,0.284,0.532,0.432,0.864,0.432c0.334,0,0.62-0.138,0.85-0.414c0.24-0.271,0.355-0.692,0.355-1.252
	c0-0.621-0.12-1.071-0.355-1.364c-0.244-0.288-0.535-0.436-0.883-0.436c-0.344,0-0.627,0.138-0.854,0.417
	C450.396,397.959,450.28,398.398,450.28,398.998"/>
<path fill="#5C5A5B" d="M454.333,398.989c0-0.835,0.236-1.451,0.696-1.856c0.389-0.338,0.865-0.503,1.423-0.503
	c0.62,0,1.13,0.201,1.521,0.609c0.4,0.404,0.595,0.968,0.595,1.685c0,0.586-0.085,1.043-0.258,1.376
	c-0.178,0.334-0.431,0.591-0.769,0.777c-0.334,0.183-0.692,0.28-1.09,0.28c-0.63,0-1.141-0.209-1.532-0.613
	C454.53,400.34,454.333,399.753,454.333,398.989 M455.12,398.989c0,0.577,0.125,1.019,0.381,1.306
	c0.25,0.284,0.568,0.432,0.951,0.432c0.381,0,0.696-0.151,0.952-0.44c0.254-0.288,0.377-0.729,0.377-1.318
	c0-0.564-0.123-0.979-0.377-1.271c-0.256-0.288-0.573-0.436-0.952-0.436c-0.383,0-0.701,0.147-0.951,0.432
	C455.245,397.977,455.12,398.413,455.12,398.989"/>
<path fill="#5C5A5B" d="M459.158,399.899l0.761-0.119c0.044,0.302,0.159,0.537,0.355,0.702c0.195,0.159,0.467,0.244,0.814,0.244
	c0.353,0,0.614-0.076,0.783-0.218c0.17-0.143,0.255-0.315,0.255-0.501c0-0.175-0.073-0.317-0.228-0.415
	c-0.101-0.065-0.365-0.155-0.781-0.257c-0.563-0.144-0.951-0.263-1.169-0.365c-0.218-0.106-0.377-0.248-0.493-0.435
	c-0.112-0.185-0.17-0.382-0.17-0.609c0-0.2,0.051-0.386,0.14-0.559c0.095-0.165,0.22-0.311,0.377-0.427
	c0.117-0.09,0.282-0.165,0.484-0.222c0.212-0.059,0.432-0.09,0.667-0.09c0.355,0,0.663,0.049,0.932,0.146
	c0.269,0.103,0.471,0.247,0.594,0.423c0.132,0.169,0.216,0.404,0.265,0.697l-0.746,0.102c-0.04-0.23-0.133-0.413-0.299-0.546
	c-0.165-0.129-0.39-0.195-0.689-0.195c-0.354,0-0.606,0.058-0.759,0.178c-0.146,0.116-0.222,0.249-0.222,0.405
	c0,0.102,0.031,0.188,0.089,0.269c0.066,0.082,0.165,0.152,0.299,0.206c0.076,0.026,0.304,0.089,0.674,0.194
	c0.542,0.146,0.924,0.263,1.133,0.355c0.219,0.09,0.388,0.228,0.508,0.4c0.119,0.178,0.182,0.396,0.182,0.657
	c0,0.259-0.071,0.498-0.223,0.725c-0.148,0.224-0.364,0.399-0.643,0.525c-0.281,0.119-0.601,0.186-0.957,0.186
	c-0.586,0-1.03-0.126-1.341-0.368C459.444,400.744,459.243,400.38,459.158,399.899"/>
<polygon fill="#5C5A5B" points="466.365,401.255 466.365,395.009 470.876,395.009 470.876,395.751 467.192,395.751 467.192,397.657 
	470.641,397.657 470.641,398.386 467.192,398.386 467.192,400.513 471.02,400.513 471.02,401.255 "/>
<path fill="#5C5A5B" d="M475.024,401.255v-0.666c-0.351,0.506-0.827,0.769-1.431,0.769c-0.27,0-0.521-0.054-0.746-0.155
	c-0.233-0.107-0.405-0.231-0.52-0.386c-0.108-0.155-0.188-0.344-0.233-0.57c-0.034-0.151-0.049-0.386-0.049-0.719v-2.795h0.771
	v2.506c0,0.399,0.008,0.671,0.04,0.809c0.05,0.204,0.15,0.359,0.313,0.475c0.153,0.112,0.345,0.17,0.576,0.17
	s0.444-0.058,0.644-0.173c0.205-0.12,0.348-0.281,0.431-0.484c0.086-0.201,0.126-0.493,0.126-0.881v-2.421h0.767v4.522h-0.689
	V401.255z"/>
<path fill="#5C5A5B" d="M476.904,401.255v-4.522h0.687v0.684c0.179-0.319,0.339-0.537,0.49-0.64
	c0.149-0.098,0.315-0.146,0.488-0.146c0.263,0,0.52,0.085,0.789,0.245l-0.265,0.71c-0.187-0.11-0.376-0.163-0.561-0.163
	c-0.163,0-0.316,0.048-0.452,0.149c-0.133,0.099-0.228,0.241-0.284,0.418c-0.085,0.271-0.126,0.569-0.126,0.898v2.367
	L476.904,401.255L476.904,401.255z"/>
<path fill="#5C5A5B" d="M479.53,398.989c0-0.835,0.232-1.451,0.701-1.856c0.387-0.338,0.859-0.503,1.417-0.503
	c0.621,0,1.133,0.201,1.522,0.609c0.397,0.404,0.597,0.968,0.597,1.685c0,0.586-0.087,1.043-0.263,1.376
	c-0.179,0.334-0.428,0.591-0.765,0.777c-0.328,0.183-0.693,0.28-1.092,0.28c-0.636,0-1.144-0.209-1.534-0.613
	C479.725,400.34,479.53,399.753,479.53,398.989 M480.319,398.989c0,0.577,0.126,1.019,0.374,1.306
	c0.253,0.284,0.572,0.432,0.955,0.432c0.382,0,0.697-0.151,0.948-0.44c0.253-0.288,0.38-0.729,0.38-1.318
	c0-0.564-0.127-0.979-0.38-1.271c-0.254-0.288-0.57-0.436-0.948-0.436c-0.383,0-0.702,0.147-0.955,0.432
	C480.445,397.977,480.319,398.413,480.319,398.989"/>
<path fill="#5C5A5B" d="M484.665,402.983v-6.251h0.696v0.587c0.162-0.235,0.349-0.405,0.556-0.517
	c0.208-0.114,0.46-0.173,0.755-0.173c0.386,0,0.725,0.099,1.022,0.299c0.292,0.199,0.519,0.479,0.671,0.839
	c0.144,0.359,0.222,0.759,0.222,1.187c0,0.466-0.083,0.884-0.249,1.248c-0.164,0.373-0.403,0.657-0.725,0.856
	c-0.315,0.196-0.648,0.299-0.996,0.299c-0.256,0-0.486-0.063-0.687-0.163c-0.205-0.108-0.371-0.246-0.503-0.41v2.199H484.665z
	 M485.358,399.017c0,0.576,0.115,1.012,0.353,1.287c0.234,0.28,0.52,0.423,0.854,0.423c0.343,0,0.637-0.147,0.876-0.432
	c0.241-0.287,0.361-0.741,0.361-1.345c0-0.573-0.112-1.005-0.353-1.293c-0.234-0.289-0.522-0.427-0.852-0.427
	c-0.324,0-0.614,0.15-0.861,0.453C485.485,397.989,485.358,398.434,485.358,399.017"/>
<path fill="#5C5A5B" d="M492.603,399.799l0.791,0.093c-0.119,0.462-0.351,0.828-0.688,1.079c-0.342,0.253-0.771,0.387-1.297,0.387
	c-0.663,0-1.187-0.209-1.574-0.613c-0.385-0.414-0.577-0.981-0.577-1.715c0-0.759,0.193-1.352,0.587-1.772
	c0.391-0.418,0.898-0.627,1.524-0.627c0.604,0,1.095,0.205,1.482,0.617c0.377,0.41,0.574,0.99,0.574,1.733
	c0,0.049-0.003,0.116-0.005,0.204h-3.371c0.026,0.498,0.168,0.876,0.421,1.142c0.252,0.268,0.564,0.4,0.946,0.4
	c0.278,0,0.519-0.076,0.716-0.228C492.332,400.354,492.49,400.121,492.603,399.799 M490.093,398.559h2.522
	c-0.034-0.387-0.133-0.667-0.289-0.858c-0.247-0.292-0.565-0.443-0.954-0.443c-0.346,0-0.645,0.119-0.882,0.355
	C490.244,397.843,490.115,398.163,490.093,398.559"/>
<path fill="#5C5A5B" d="M497.319,401.255v-0.666c-0.348,0.506-0.828,0.769-1.432,0.769c-0.268,0-0.513-0.054-0.748-0.155
	c-0.229-0.107-0.401-0.231-0.518-0.386c-0.108-0.155-0.188-0.344-0.231-0.57c-0.034-0.151-0.044-0.386-0.044-0.719v-2.795h0.764
	v2.506c0,0.399,0.013,0.671,0.046,0.809c0.047,0.204,0.148,0.359,0.309,0.475c0.155,0.112,0.349,0.17,0.577,0.17
	s0.444-0.058,0.648-0.173c0.2-0.12,0.343-0.281,0.428-0.484c0.083-0.201,0.126-0.493,0.126-0.881v-2.421h0.764v4.522h-0.689V401.255
	z"/>
<path fill="#5C5A5B" d="M498.902,399.899l0.756-0.119c0.045,0.302,0.162,0.537,0.361,0.702c0.19,0.159,0.461,0.244,0.813,0.244
	c0.346,0,0.612-0.076,0.778-0.218c0.174-0.143,0.259-0.315,0.259-0.501c0-0.175-0.079-0.317-0.225-0.415
	c-0.106-0.065-0.368-0.155-0.786-0.257c-0.562-0.144-0.946-0.263-1.164-0.365c-0.222-0.106-0.387-0.248-0.494-0.435
	c-0.115-0.185-0.169-0.382-0.169-0.609c0-0.2,0.043-0.386,0.14-0.559c0.089-0.165,0.216-0.311,0.371-0.427
	c0.122-0.09,0.281-0.165,0.49-0.222c0.204-0.059,0.426-0.09,0.666-0.09c0.352,0,0.661,0.049,0.929,0.146
	c0.271,0.103,0.469,0.247,0.595,0.423c0.125,0.169,0.215,0.404,0.265,0.697l-0.751,0.102c-0.032-0.23-0.131-0.413-0.293-0.546
	c-0.166-0.129-0.398-0.195-0.69-0.195c-0.355,0-0.606,0.058-0.754,0.178c-0.155,0.116-0.229,0.249-0.229,0.405
	c0,0.102,0.031,0.188,0.094,0.269c0.064,0.082,0.162,0.152,0.298,0.206c0.07,0.026,0.303,0.089,0.674,0.194
	c0.543,0.146,0.922,0.263,1.137,0.355c0.213,0.09,0.379,0.228,0.501,0.4c0.123,0.178,0.185,0.396,0.185,0.657
	c0,0.259-0.075,0.498-0.222,0.725c-0.152,0.224-0.364,0.399-0.648,0.525c-0.28,0.119-0.595,0.186-0.952,0.186
	c-0.586,0-1.038-0.126-1.345-0.368C499.183,400.744,498.987,400.38,498.902,399.899"/>
<polygon fill="#5C5A5B" points="434.863,411.713 434.863,405.472 439.376,405.472 439.376,406.208 435.689,406.208 435.689,408.12 
	439.14,408.12 439.14,408.856 435.689,408.856 435.689,410.98 439.524,410.98 439.524,411.713 "/>
<path fill="#5C5A5B" d="M440.256,410.358l0.76-0.116c0.044,0.302,0.159,0.538,0.355,0.702c0.192,0.159,0.464,0.239,0.812,0.239
	c0.355,0,0.613-0.069,0.786-0.212c0.17-0.146,0.252-0.312,0.252-0.508c0-0.171-0.073-0.311-0.226-0.408
	c-0.103-0.066-0.363-0.15-0.783-0.258c-0.557-0.143-0.948-0.265-1.166-0.368c-0.215-0.103-0.382-0.249-0.493-0.432
	c-0.113-0.177-0.168-0.386-0.168-0.608c0-0.195,0.047-0.386,0.138-0.556c0.093-0.173,0.218-0.314,0.377-0.43
	c0.116-0.09,0.282-0.159,0.487-0.223c0.206-0.063,0.429-0.094,0.664-0.094c0.353,0,0.663,0.054,0.932,0.157
	c0.268,0.101,0.467,0.234,0.596,0.416c0.125,0.173,0.214,0.404,0.263,0.698l-0.75,0.102c-0.036-0.23-0.129-0.413-0.295-0.547
	c-0.164-0.128-0.393-0.199-0.692-0.199c-0.352,0-0.604,0.062-0.756,0.178c-0.146,0.119-0.223,0.254-0.223,0.413
	c0,0.098,0.032,0.183,0.094,0.266c0.063,0.086,0.161,0.146,0.295,0.201c0.075,0.031,0.302,0.098,0.675,0.199
	c0.541,0.146,0.923,0.263,1.132,0.355c0.219,0.089,0.387,0.227,0.507,0.404c0.12,0.174,0.185,0.392,0.185,0.649
	c0,0.262-0.072,0.501-0.225,0.723c-0.146,0.227-0.364,0.4-0.645,0.524c-0.28,0.126-0.599,0.183-0.954,0.183
	c-0.587,0-1.031-0.119-1.343-0.364C440.54,411.202,440.343,410.843,440.256,410.358"/>
<path fill="#5C5A5B" d="M446.592,411.028l0.114,0.676c-0.217,0.044-0.409,0.07-0.578,0.07c-0.282,0-0.497-0.048-0.65-0.137
	c-0.152-0.085-0.261-0.199-0.321-0.347c-0.063-0.144-0.093-0.439-0.093-0.897v-2.604h-0.561v-0.599h0.561v-1.115l0.759-0.467v1.582
	h0.77v0.599h-0.77v2.64c0,0.218,0.018,0.364,0.041,0.427c0.028,0.057,0.072,0.11,0.136,0.146c0.06,0.036,0.146,0.05,0.261,0.05
	C446.346,411.052,446.455,411.042,446.592,411.028"/>
<path fill="#5C5A5B" d="M447.335,411.713v-4.522h0.689v0.685c0.179-0.315,0.341-0.529,0.487-0.63
	c0.148-0.104,0.314-0.157,0.491-0.157c0.258,0,0.52,0.085,0.785,0.25l-0.266,0.71c-0.186-0.11-0.371-0.164-0.556-0.164
	c-0.167,0-0.319,0.048-0.453,0.15c-0.136,0.104-0.228,0.235-0.284,0.418c-0.089,0.274-0.129,0.573-0.129,0.893v2.368
	L447.335,411.713L447.335,411.713z"/>
<path fill="#5C5A5B" d="M453.209,411.713v-0.666c-0.352,0.511-0.829,0.764-1.435,0.764c-0.266,0-0.515-0.049-0.745-0.149
	c-0.231-0.104-0.399-0.23-0.516-0.385c-0.112-0.155-0.191-0.346-0.238-0.567c-0.031-0.15-0.046-0.387-0.046-0.72v-2.799h0.769v2.51
	c0,0.403,0.016,0.671,0.044,0.809c0.049,0.2,0.151,0.36,0.309,0.476c0.154,0.11,0.345,0.169,0.58,0.169
	c0.228,0,0.443-0.059,0.645-0.173c0.199-0.118,0.343-0.28,0.432-0.48c0.08-0.204,0.123-0.502,0.123-0.884v-2.426h0.766v4.522h-0.688
	V411.713z"/>
<path fill="#5C5A5B" d="M456.77,411.028l0.11,0.676c-0.219,0.044-0.409,0.07-0.577,0.07c-0.282,0-0.497-0.048-0.653-0.137
	c-0.148-0.085-0.258-0.199-0.32-0.347c-0.062-0.144-0.093-0.439-0.093-0.897v-2.604h-0.562v-0.599h0.562v-1.115l0.765-0.467v1.582
	h0.769v0.599h-0.769v2.64c0,0.218,0.007,0.364,0.039,0.427c0.027,0.057,0.071,0.11,0.134,0.146c0.057,0.036,0.146,0.05,0.258,0.05
	C456.515,411.052,456.631,411.042,456.77,411.028"/>
<path fill="#5C5A5B" d="M460.477,411.713v-0.666c-0.349,0.511-0.829,0.764-1.429,0.764c-0.269,0-0.515-0.049-0.75-0.149
	c-0.232-0.104-0.4-0.23-0.517-0.385c-0.109-0.155-0.191-0.346-0.232-0.567c-0.033-0.15-0.05-0.387-0.05-0.72v-2.799h0.767v2.51
	c0,0.403,0.014,0.671,0.046,0.809c0.053,0.2,0.152,0.36,0.309,0.476c0.152,0.11,0.351,0.169,0.58,0.169
	c0.226,0,0.445-0.059,0.646-0.173c0.201-0.118,0.344-0.28,0.429-0.48c0.08-0.204,0.123-0.502,0.123-0.884v-2.426h0.768v4.522h-0.69
	V411.713z"/>
<path fill="#5C5A5B" d="M462.358,411.713v-4.522h0.688v0.685c0.176-0.315,0.341-0.529,0.488-0.63
	c0.147-0.104,0.312-0.157,0.492-0.157c0.257,0,0.519,0.085,0.783,0.25l-0.259,0.71c-0.189-0.11-0.377-0.164-0.563-0.164
	c-0.17,0-0.318,0.048-0.454,0.15c-0.134,0.104-0.229,0.235-0.283,0.418c-0.086,0.274-0.129,0.573-0.129,0.893v2.368L462.358,411.713
	L462.358,411.713z"/>
<path fill="#5C5A5B" d="M468.217,411.153c-0.284,0.244-0.556,0.412-0.821,0.515c-0.258,0.094-0.543,0.143-0.839,0.143
	c-0.498,0-0.881-0.119-1.149-0.358c-0.267-0.245-0.397-0.557-0.397-0.93c0-0.223,0.046-0.426,0.151-0.613
	c0.103-0.178,0.231-0.323,0.395-0.436c0.165-0.115,0.348-0.195,0.551-0.249c0.148-0.044,0.378-0.08,0.68-0.119
	c0.622-0.066,1.077-0.16,1.366-0.263c0.007-0.105,0.007-0.168,0.007-0.199c0-0.312-0.071-0.53-0.216-0.662
	c-0.196-0.174-0.485-0.259-0.873-0.259c-0.364,0-0.625,0.066-0.802,0.188c-0.166,0.128-0.295,0.354-0.379,0.677l-0.749-0.104
	c0.069-0.319,0.18-0.582,0.339-0.777c0.152-0.2,0.378-0.351,0.68-0.458c0.29-0.106,0.629-0.16,1.019-0.16
	c0.386,0,0.702,0.044,0.94,0.139c0.243,0.088,0.418,0.204,0.534,0.347c0.112,0.133,0.196,0.306,0.239,0.519
	c0.025,0.124,0.036,0.364,0.036,0.707v1.022c0,0.71,0.019,1.159,0.052,1.345c0.03,0.19,0.095,0.373,0.193,0.547h-0.8
	C468.29,411.553,468.24,411.366,468.217,411.153 M468.153,409.446c-0.275,0.107-0.694,0.205-1.25,0.289
	c-0.315,0.045-0.537,0.09-0.669,0.147c-0.127,0.058-0.233,0.142-0.303,0.253c-0.067,0.106-0.104,0.232-0.104,0.364
	c0,0.2,0.076,0.379,0.231,0.511c0.154,0.137,0.377,0.205,0.678,0.205c0.295,0,0.56-0.068,0.788-0.195
	c0.229-0.125,0.396-0.307,0.507-0.529c0.084-0.173,0.121-0.431,0.121-0.767v-0.278H468.153z"/>
<path fill="#5C5A5B" d="M470.12,405.472h0.767v0.878h-0.767V405.472z M470.12,407.19h0.767v4.522h-0.767V407.19z"/>
<path fill="#5C5A5B" d="M471.745,410.358l0.76-0.116c0.044,0.302,0.164,0.538,0.359,0.702c0.191,0.159,0.462,0.239,0.812,0.239
	c0.353,0,0.612-0.069,0.784-0.212c0.167-0.146,0.253-0.312,0.253-0.508c0-0.171-0.073-0.311-0.227-0.408
	c-0.102-0.066-0.367-0.15-0.778-0.258c-0.564-0.143-0.952-0.265-1.174-0.368c-0.215-0.103-0.378-0.249-0.491-0.432
	c-0.112-0.177-0.169-0.386-0.169-0.608c0-0.195,0.047-0.386,0.137-0.556c0.099-0.173,0.221-0.314,0.378-0.43
	c0.119-0.09,0.282-0.159,0.488-0.223c0.208-0.063,0.427-0.094,0.663-0.094c0.354,0,0.665,0.054,0.933,0.157
	c0.271,0.101,0.469,0.234,0.592,0.416c0.129,0.173,0.216,0.404,0.265,0.698l-0.746,0.102c-0.036-0.23-0.133-0.413-0.295-0.547
	c-0.169-0.128-0.394-0.199-0.695-0.199c-0.352,0-0.604,0.062-0.751,0.178c-0.15,0.119-0.229,0.254-0.229,0.413
	c0,0.098,0.035,0.183,0.1,0.266c0.058,0.086,0.156,0.146,0.289,0.201c0.076,0.031,0.306,0.098,0.676,0.199
	c0.541,0.146,0.923,0.263,1.138,0.355c0.212,0.089,0.382,0.227,0.506,0.404c0.124,0.174,0.178,0.392,0.178,0.649
	c0,0.262-0.071,0.501-0.222,0.723c-0.147,0.227-0.362,0.4-0.645,0.524c-0.281,0.126-0.6,0.183-0.955,0.183
	c-0.586,0-1.03-0.119-1.345-0.364C472.03,411.202,471.831,410.843,471.745,410.358"/>
<path fill="#5C5A5B" d="M481.927,410.256l0.795,0.099c-0.126,0.461-0.36,0.82-0.692,1.076c-0.338,0.256-0.773,0.38-1.297,0.38
	c-0.662,0-1.187-0.204-1.573-0.608c-0.386-0.403-0.58-0.977-0.58-1.715c0-0.761,0.198-1.35,0.589-1.772
	c0.387-0.418,0.897-0.627,1.521-0.627c0.607,0,1.101,0.204,1.482,0.618s0.574,0.986,0.574,1.74c0,0.041-0.001,0.107-0.001,0.2
	h-3.372c0.026,0.499,0.169,0.881,0.422,1.146c0.249,0.259,0.564,0.391,0.939,0.391c0.286,0,0.521-0.069,0.727-0.218
	C481.655,410.815,481.817,410.58,481.927,410.256 M479.413,409.016h2.523c-0.032-0.377-0.134-0.666-0.289-0.852
	c-0.241-0.299-0.56-0.449-0.948-0.449c-0.352,0-0.648,0.119-0.887,0.355C479.573,408.311,479.441,408.625,479.413,409.016"/>
<path fill="#5C5A5B" d="M489.04,411.713v-0.568c-0.29,0.444-0.709,0.666-1.266,0.666c-0.361,0-0.689-0.093-0.996-0.293
	c-0.297-0.2-0.532-0.476-0.701-0.835c-0.166-0.355-0.249-0.765-0.249-1.23c0-0.444,0.077-0.857,0.229-1.222
	c0.144-0.374,0.376-0.649,0.678-0.849c0.298-0.191,0.63-0.294,1.006-0.294c0.273,0,0.513,0.059,0.728,0.173
	c0.213,0.116,0.386,0.263,0.518,0.449v-2.238h0.763v6.241H489.04z M486.617,409.452c0,0.581,0.119,1.017,0.365,1.301
	c0.242,0.289,0.53,0.431,0.862,0.431c0.338,0,0.623-0.137,0.857-0.412c0.236-0.271,0.347-0.689,0.347-1.253
	c0-0.619-0.12-1.07-0.355-1.365c-0.239-0.284-0.528-0.431-0.88-0.431c-0.34,0-0.626,0.143-0.857,0.418
	C486.735,408.422,486.617,408.856,486.617,409.452"/>
<path fill="#5C5A5B" d="M494.047,410.256l0.79,0.099c-0.119,0.461-0.354,0.82-0.692,1.076c-0.339,0.256-0.77,0.38-1.293,0.38
	c-0.661,0-1.185-0.204-1.572-0.608c-0.388-0.403-0.583-0.977-0.583-1.715c0-0.761,0.201-1.35,0.586-1.772
	c0.392-0.418,0.908-0.627,1.529-0.627c0.6,0,1.098,0.204,1.481,0.618c0.381,0.414,0.576,0.986,0.576,1.74
	c0,0.041-0.005,0.107-0.01,0.2h-3.369c0.028,0.499,0.171,0.881,0.419,1.146c0.254,0.259,0.57,0.391,0.944,0.391
	c0.285,0,0.521-0.069,0.723-0.218C493.776,410.815,493.931,410.58,494.047,410.256 M491.532,409.016h2.525
	c-0.034-0.377-0.13-0.666-0.293-0.852c-0.24-0.299-0.561-0.449-0.948-0.449c-0.354,0-0.645,0.119-0.882,0.355
	C491.688,408.311,491.558,408.625,491.532,409.016"/>
<rect x="498.463" y="405.472" fill="#5C5A5B" width="0.823" height="6.241"/>
<path fill="#5C5A5B" d="M500.647,411.713v-4.522h0.691v0.644c0.328-0.496,0.809-0.746,1.436-0.746c0.275,0,0.523,0.054,0.753,0.147
	c0.228,0.097,0.398,0.226,0.512,0.386c0.115,0.161,0.195,0.347,0.239,0.565c0.03,0.146,0.043,0.391,0.043,0.746v2.78h-0.767v-2.747
	c0-0.314-0.03-0.55-0.089-0.7c-0.063-0.159-0.164-0.28-0.32-0.373c-0.149-0.093-0.33-0.143-0.532-0.143
	c-0.33,0-0.608,0.106-0.844,0.315c-0.241,0.204-0.354,0.596-0.354,1.178v2.47H500.647z"/>
<path fill="#5C5A5B" d="M506.748,411.713l-1.72-4.522h0.813l0.97,2.71c0.105,0.292,0.199,0.595,0.287,0.911
	c0.07-0.24,0.16-0.524,0.286-0.861l1.002-2.76h0.792l-1.714,4.522H506.748z"/>
<path fill="#5C5A5B" d="M512.946,410.256l0.796,0.099c-0.123,0.461-0.358,0.82-0.693,1.076c-0.339,0.256-0.771,0.38-1.297,0.38
	c-0.658,0-1.183-0.204-1.574-0.608c-0.382-0.403-0.58-0.977-0.58-1.715c0-0.761,0.198-1.35,0.591-1.772
	c0.39-0.418,0.896-0.627,1.518-0.627c0.607,0,1.103,0.204,1.484,0.618s0.573,0.986,0.573,1.74c0,0.041,0,0.107-0.002,0.2h-3.369
	c0.026,0.499,0.169,0.881,0.418,1.146c0.253,0.259,0.573,0.391,0.948,0.391c0.279,0,0.52-0.069,0.72-0.218
	C512.677,410.815,512.83,410.58,512.946,410.256 M510.434,409.016h2.525c-0.035-0.377-0.136-0.666-0.289-0.852
	c-0.245-0.299-0.561-0.449-0.955-0.449c-0.351,0-0.64,0.119-0.885,0.355C510.591,408.311,510.458,408.625,510.434,409.016"/>
<path fill="#5C5A5B" d="M514.397,410.358l0.757-0.116c0.039,0.302,0.159,0.538,0.355,0.702c0.193,0.159,0.463,0.239,0.813,0.239
	c0.355,0,0.61-0.069,0.783-0.212c0.172-0.146,0.255-0.312,0.255-0.508c0-0.171-0.075-0.311-0.225-0.408
	c-0.105-0.066-0.364-0.15-0.782-0.258c-0.561-0.143-0.946-0.265-1.164-0.368c-0.223-0.103-0.388-0.249-0.498-0.432
	c-0.109-0.177-0.168-0.386-0.168-0.608c0-0.195,0.043-0.386,0.142-0.556c0.089-0.173,0.212-0.314,0.372-0.43
	c0.121-0.09,0.284-0.159,0.49-0.223c0.203-0.063,0.425-0.094,0.659-0.094c0.356,0,0.668,0.054,0.936,0.157
	c0.271,0.101,0.464,0.234,0.594,0.416c0.125,0.173,0.216,0.404,0.263,0.698l-0.748,0.102c-0.036-0.23-0.133-0.413-0.298-0.547
	c-0.161-0.128-0.394-0.199-0.69-0.199c-0.351,0-0.603,0.062-0.754,0.178c-0.15,0.119-0.226,0.254-0.226,0.413
	c0,0.098,0.032,0.183,0.095,0.266c0.064,0.086,0.158,0.146,0.294,0.201c0.075,0.031,0.301,0.098,0.675,0.199
	c0.545,0.146,0.925,0.263,1.138,0.355c0.213,0.089,0.377,0.227,0.502,0.404c0.121,0.174,0.185,0.392,0.185,0.649
	c0,0.262-0.073,0.501-0.226,0.723c-0.149,0.227-0.362,0.4-0.643,0.524c-0.286,0.126-0.598,0.183-0.956,0.183
	c-0.583,0-1.031-0.119-1.342-0.364C514.681,411.202,514.483,410.843,514.397,410.358"/>
<path fill="#5C5A5B" d="M520.734,411.028l0.105,0.676c-0.21,0.044-0.405,0.07-0.577,0.07c-0.274,0-0.488-0.048-0.644-0.137
	c-0.153-0.085-0.265-0.199-0.327-0.347c-0.06-0.144-0.091-0.439-0.091-0.897v-2.604h-0.56v-0.599h0.56v-1.115l0.765-0.467v1.582
	h0.769v0.599h-0.769v2.64c0,0.218,0.009,0.364,0.041,0.427c0.023,0.057,0.07,0.11,0.128,0.146c0.063,0.036,0.151,0.05,0.265,0.05
	C520.483,411.052,520.597,411.042,520.734,411.028"/>
<path fill="#5C5A5B" d="M521.49,405.472h0.765v0.878h-0.765V405.472z M521.49,407.19h0.765v4.522h-0.765V407.19z"/>
<path fill="#5C5A5B" d="M523.419,411.713v-4.522h0.685v0.64c0.143-0.227,0.332-0.405,0.566-0.542c0.235-0.129,0.506-0.2,0.804-0.2
	c0.339,0,0.613,0.071,0.826,0.209c0.215,0.143,0.366,0.333,0.453,0.587c0.362-0.528,0.822-0.796,1.396-0.796
	c0.451,0,0.793,0.124,1.035,0.373c0.241,0.249,0.361,0.631,0.361,1.151v3.101h-0.762v-2.853c0-0.302-0.026-0.523-0.074-0.66
	c-0.05-0.135-0.142-0.241-0.271-0.325c-0.127-0.08-0.284-0.125-0.457-0.125c-0.322,0-0.588,0.106-0.793,0.32
	c-0.208,0.213-0.314,0.551-0.314,1.018v2.625h-0.769v-2.94c0-0.338-0.062-0.592-0.187-0.761c-0.127-0.169-0.332-0.262-0.613-0.262
	c-0.217,0-0.412,0.058-0.594,0.179c-0.186,0.105-0.321,0.271-0.4,0.493c-0.085,0.217-0.124,0.537-0.124,0.945v2.346h-0.768V411.713z
	"/>
<path fill="#5C5A5B" d="M533.778,410.256l0.79,0.099c-0.122,0.461-0.354,0.82-0.692,1.076c-0.339,0.256-0.771,0.38-1.294,0.38
	c-0.661,0-1.186-0.204-1.576-0.608c-0.387-0.403-0.579-0.977-0.579-1.715c0-0.761,0.197-1.35,0.586-1.772
	c0.394-0.418,0.899-0.627,1.526-0.627c0.604,0,1.099,0.204,1.482,0.618c0.378,0.414,0.573,0.986,0.573,1.74
	c0,0.041,0,0.107-0.004,0.2h-3.372c0.029,0.499,0.17,0.881,0.419,1.146c0.256,0.259,0.57,0.391,0.945,0.391
	c0.284,0,0.522-0.069,0.72-0.218C533.502,410.815,533.656,410.58,533.778,410.256 M531.261,409.016h2.524
	c-0.034-0.377-0.132-0.666-0.289-0.852c-0.242-0.299-0.563-0.449-0.95-0.449c-0.353,0-0.646,0.119-0.884,0.355
	C531.418,408.311,531.285,408.625,531.261,409.016"/>
<path fill="#5C5A5B" d="M535.528,411.713v-4.522h0.69v0.644c0.336-0.496,0.812-0.746,1.442-0.746c0.271,0,0.523,0.054,0.75,0.147
	c0.229,0.097,0.398,0.226,0.511,0.386c0.116,0.161,0.191,0.347,0.241,0.565c0.025,0.146,0.042,0.391,0.042,0.746v2.78h-0.768v-2.747
	c0-0.314-0.03-0.55-0.093-0.7c-0.057-0.159-0.16-0.28-0.311-0.373s-0.333-0.143-0.539-0.143c-0.323,0-0.604,0.106-0.842,0.315
	c-0.236,0.204-0.356,0.596-0.356,1.178v2.47H535.528z"/>
<path fill="#5C5A5B" d="M542.05,411.028l0.11,0.676c-0.213,0.044-0.406,0.07-0.578,0.07c-0.275,0-0.493-0.048-0.646-0.137
	c-0.152-0.085-0.259-0.199-0.323-0.347c-0.064-0.144-0.097-0.439-0.097-0.897v-2.604h-0.559v-0.599h0.559v-1.115l0.765-0.467v1.582
	h0.77v0.599h-0.77v2.64c0,0.218,0.014,0.364,0.043,0.427c0.028,0.057,0.066,0.11,0.13,0.146c0.061,0.036,0.149,0.05,0.262,0.05
	C541.798,411.052,541.914,411.042,542.05,411.028"/>
<path fill="#5C5A5B" d="M542.517,409.452c0-0.84,0.229-1.458,0.693-1.858c0.389-0.335,0.865-0.506,1.427-0.506
	c0.62,0,1.127,0.204,1.521,0.608c0.398,0.41,0.592,0.974,0.592,1.693c0,0.578-0.085,1.039-0.258,1.369
	c-0.179,0.336-0.432,0.595-0.763,0.776c-0.335,0.187-0.699,0.275-1.093,0.275c-0.634,0-1.145-0.195-1.535-0.608
	C542.71,410.799,542.517,410.216,542.517,409.452 M543.305,409.452c0,0.581,0.121,1.012,0.376,1.301
	c0.253,0.289,0.569,0.431,0.956,0.431c0.377,0,0.692-0.142,0.947-0.431s0.379-0.733,0.379-1.323c0-0.56-0.124-0.987-0.383-1.276
	c-0.251-0.284-0.567-0.431-0.943-0.431c-0.387,0-0.703,0.143-0.956,0.431C543.426,408.442,543.305,408.874,543.305,409.452"/>
</svg>
