<?xml version="1.0" encoding="utf-8"?>
<!-- Generator: Adobe Illustrator 17.0.0, SVG Export Plug-In . SVG Version: 6.00 Build 0)  -->
<!DOCTYPE svg PUBLIC "-//W3C//DTD SVG 1.1//EN" "http://www.w3.org/Graphics/SVG/1.1/DTD/svg11.dtd">
<svg version="1.1" id="Camada_1" xmlns="http://www.w3.org/2000/svg" xmlns:xlink="http://www.w3.org/1999/xlink" x="0px" y="0px"
	 width="170.75px" height="43px" viewBox="0 0 170.75 43" enable-background="new 0 0 170.75 43" xml:space="preserve">
<g>
	<g>
		<path fill="#BCBDC0" d="M1.302,39h53.466V4H1.302V39z M37.98,15.582l0.337-1.175l0.335,1.175h1.175l-1.007,0.672l0.336,1.175
			l-1.008-0.672l-1.007,0.672l0.336-1.175l-1.008-0.672H37.98z M14.563,21.207h1.175l0.336-1.176l0.336,1.176h1.175l-1.008,0.671
			l0.336,1.175l-0.755-0.672l-1.007,0.672l0.335-1.175L14.563,21.207z M18.592,29.431l-1.007-0.671l-1.008,0.671l0.336-1.175
			l-1.007-0.672h1.175l0.336-1.175l0.335,1.175h1.176l-1.007,0.672L18.592,29.431z M18.256,16.254l0.336,1.175l-1.007-0.672
			l-1.008,0.672l0.336-1.175l-1.007-0.672h1.175l0.336-1.175l0.335,1.175h1.176L18.256,16.254z M21.53,11.134l0.335-1.175
			l0.336,1.175h1.175l-1.007,0.671l0.335,1.175l-1.007-0.671l-1.006,0.671l0.335-1.175l-1.007-0.671H21.53z M23.208,33.796
			l-1.007-0.671l-1.008,0.671l0.337-1.174l-1.008-0.672h1.175l0.336-1.176l0.336,1.176h1.175l-1.008,0.672L23.208,33.796z
			 M29.084,35.055l-1.008-0.672l-1.007,0.672l0.336-1.175l-1.007-0.672h1.175l0.335-1.176l0.337,1.176h1.174l-1.007,0.672
			L29.084,35.055z M28.664,10.127L29,11.302l-1.007-0.671l-0.924,0.671l0.336-1.175l-1.007-0.672h1.175l0.335-1.175l0.337,1.175
			h1.174L28.664,10.127z M34.791,33.796l-1.007-0.671l-1.008,0.671l0.337-1.174l-1.008-0.672h1.175l0.504-1.176l0.335,1.176h1.176
			l-1.008,0.672L34.791,33.796z M34.707,11.889l0.336,1.175l-1.007-0.671l-1.008,0.671l0.337-1.175l-1.008-0.671h1.175l0.335-1.175
			l0.337,1.175h1.174L34.707,11.889z M39.324,29.431l-1.007-0.671l-1.008,0.671l0.336-1.175l-1.008-0.672h1.176l0.335-1.175
			l0.336,1.175h1.175l-1.007,0.672L39.324,29.431z M40.834,23.052l-1.007-0.672l-1.007,0.672l0.336-1.175l-1.008-0.671h1.176
			l0.335-1.176l0.336,1.176h1.175l-1.007,0.671L40.834,23.052z"/>
		<path fill="#BCBDC0" d="M58.747,4.343v3.75c0,1.375,0.624,2,1.5,2c0.874,0,1.499-0.625,1.499-2v-3.75h0.875v3.625
			c0,1.875-1,2.75-2.374,2.75c-1.251,0-2.25-0.75-2.25-2.625v-3.75H58.747z"/>
		<path fill="#BCBDC0" d="M63.997,7.343c0-0.5,0-0.875,0-1.25h0.75v0.75l0,0c0.249-0.375,0.75-0.875,1.5-0.875
			c0.625,0,1.624,0.375,1.624,1.875v2.625h-0.874V8.093c0-0.75-0.251-1.375-1.001-1.375c-0.499,0-1,0.375-1.125,0.875
			c0,0.125,0,0.25,0,0.375v2.75h-0.874V7.343z"/>
		<path fill="#BCBDC0" d="M69.997,4.843c0,0.25-0.251,0.5-0.5,0.5c-0.25,0-0.501-0.25-0.501-0.5s0.251-0.5,0.501-0.5
			C69.746,4.343,69.997,4.593,69.997,4.843 M69.122,6.093h0.875v4.5h-0.875V6.093z"/>
		<path fill="#BCBDC0" d="M74.372,9.593c0,0.375,0,0.75,0,1.125h-0.75l-0.126-0.625l0,0c-0.249,0.375-0.75,0.625-1.375,0.625
			c-0.875,0-1.374-0.625-1.374-1.25c0-1.125,0.999-1.625,2.749-1.625V7.718c0-0.375-0.124-1-0.999-1
			c-0.375,0-0.876,0.125-1.126,0.375l-0.249-0.5c0.375-0.25,0.874-0.375,1.5-0.375c1.375,0,1.75,1,1.75,1.875V9.593z M71.621,5.343
			c0-0.625,0.251-1,0.626-1c0.25,0,0.375,0.125,0.625,0.25c0.125,0.125,0.249,0.125,0.375,0.125c0.125,0,0.249-0.125,0.249-0.375
			h0.375c0,0.625-0.249,0.875-0.624,0.875c-0.25,0-0.375-0.125-0.625-0.25c-0.251-0.125-0.251-0.125-0.375-0.125
			c-0.126,0-0.251,0.125-0.251,0.375h-0.375V5.343z M73.622,8.343c-0.876,0-1.876,0.125-1.876,1c0,0.5,0.375,0.75,0.751,0.75
			c0.624,0,0.999-0.375,1.125-0.75c0-0.125,0-0.125,0-0.25V8.343z"/>
		<path fill="#BCBDC0" d="M79.872,8.343c0,1.625-1.125,2.375-2.25,2.375c-1.249,0-2.125-0.875-2.125-2.375s1-2.375,2.25-2.375
			C78.996,6.093,79.872,6.968,79.872,8.343 M76.247,8.343c0,1,0.501,1.75,1.375,1.75c0.75,0,1.374-0.75,1.374-1.75
			c0-0.75-0.375-1.75-1.374-1.75C76.622,6.718,76.247,7.593,76.247,8.343"/>
		<polygon fill="#BCBDC0" points="86.122,7.718 83.622,7.718 83.622,9.968 86.373,9.968 86.373,10.593 82.872,10.593 82.872,4.343 
			86.247,4.343 86.247,5.093 83.622,5.093 83.622,6.968 86.122,6.968 		"/>
		<path fill="#BCBDC0" d="M91.122,9.343c0,0.5,0,0.875,0,1.25h-0.75v-0.75l0,0c-0.25,0.375-0.75,0.875-1.5,0.875s-1.5-0.375-1.5-2
			V6.093h0.875v2.5c0,0.875,0.25,1.5,1,1.5c0.5,0,0.875-0.375,1.125-0.75c0-0.125,0.125-0.25,0.125-0.375V6.093h0.875v3.25H91.122z"
			/>
		<path fill="#BCBDC0" d="M92.497,7.593c0-0.5,0-1,0-1.375h0.75v0.875l0,0c0.251-0.625,0.75-1,1.251-1c0.125,0,0.125,0,0.249,0v0.75
			c-0.124,0-0.124,0-0.249,0c-0.625,0-1,0.375-1.125,1c0,0.125,0,0.25,0,0.375v2.375h-0.876V7.593z"/>
		<path fill="#BCBDC0" d="M99.497,8.343c0,1.625-1.125,2.375-2.249,2.375c-1.25,0-2.126-0.875-2.126-2.375s1.001-2.375,2.25-2.375
			C98.622,6.093,99.497,6.968,99.497,8.343 M95.872,8.343c0,1,0.501,1.75,1.376,1.75c0.75,0,1.374-0.75,1.374-1.75
			c0-0.75-0.375-1.75-1.374-1.75C96.373,6.718,95.872,7.593,95.872,8.343"/>
		<path fill="#BCBDC0" d="M100.498,7.593c0-0.625,0-1,0-1.5h0.75v0.75l0,0c0.375-0.5,0.874-0.875,1.624-0.875
			c1.125,0,1.875,0.875,1.875,2.25c0,1.625-0.999,2.375-1.999,2.375c-0.626,0-1.125-0.25-1.376-0.75l0,0v2.5h-0.75v-4.75H100.498z
			 M101.248,8.843c0,0.125,0,0.25,0,0.375c0.124,0.625,0.625,1,1.249,1c0.876,0,1.376-0.75,1.376-1.75
			c0-0.875-0.5-1.625-1.376-1.625c-0.499,0-1.125,0.375-1.249,1c0,0.125,0,0.25,0,0.375V8.843z"/>
		<path fill="#BCBDC0" d="M106.247,8.593c0,1.125,0.75,1.625,1.5,1.625c0.626,0,1.001-0.125,1.251-0.25l0.125,0.5
			c-0.251,0.125-0.75,0.25-1.5,0.25c-1.376,0-2.25-0.875-2.25-2.25s0.75-2.375,2.124-2.375c1.501,0,1.876,1.25,1.876,2.125
			c0,0.125,0,0.25,0,0.375H106.247z M108.623,7.968c0-0.5-0.25-1.375-1.126-1.375c-0.875,0-1.25,0.75-1.25,1.375H108.623z"/>
		<path fill="#BCBDC0" d="M111.373,4.843c0,0.25-0.25,0.5-0.5,0.5s-0.5-0.25-0.5-0.5s0.25-0.5,0.5-0.5S111.373,4.593,111.373,4.843
			 M110.373,6.093h0.875v4.5h-0.875V6.093z"/>
		<path fill="#BCBDC0" d="M115.748,9.593c0,0.375,0,0.75,0.124,1.125h-0.75l-0.124-0.625l0,0c-0.251,0.375-0.75,0.625-1.374,0.625
			c-0.876,0-1.376-0.625-1.376-1.25c0-1.125,1.001-1.625,2.75-1.625V7.718c0-0.375-0.125-1-1-1c-0.374,0-0.875,0.125-1.124,0.375
			l-0.126-0.5c0.375-0.25,0.876-0.375,1.5-0.375c1.374,0,1.749,1,1.749,1.875v1.5H115.748z M114.998,8.343
			c-0.875,0-1.875,0.125-1.875,1c0,0.5,0.375,0.75,0.75,0.75c0.625,0,1-0.375,1.125-0.75c0-0.125,0-0.125,0-0.25V8.343z"/>
	</g>
	<polygon fill="#BCBDC0" points="57.587,25.947 57.587,19.701 61.798,19.701 61.798,20.443 58.413,20.443 58.413,22.37 
		61.346,22.37 61.346,23.108 58.413,23.108 58.413,25.947 	"/>
	<path fill="#BCBDC0" d="M65.735,25.947v-0.666c-0.352,0.506-0.831,0.769-1.436,0.769c-0.271,0-0.518-0.054-0.746-0.155
		c-0.233-0.107-0.404-0.231-0.516-0.386c-0.116-0.155-0.191-0.344-0.235-0.57c-0.031-0.151-0.05-0.386-0.05-0.719v-2.795h0.769
		v2.506c0,0.399,0.014,0.671,0.05,0.809c0.044,0.204,0.143,0.359,0.302,0.475c0.155,0.112,0.352,0.17,0.582,0.17
		c0.229,0,0.446-0.058,0.646-0.173c0.197-0.12,0.344-0.281,0.426-0.484c0.085-0.201,0.126-0.493,0.126-0.881v-2.421h0.769v4.522
		h-0.687V25.947z"/>
	<path fill="#BCBDC0" d="M67.619,25.947v-4.522h0.69v0.644c0.334-0.497,0.812-0.746,1.437-0.746c0.276,0,0.526,0.049,0.754,0.146
		c0.229,0.099,0.401,0.228,0.508,0.387c0.118,0.16,0.198,0.348,0.245,0.561c0.026,0.143,0.039,0.391,0.039,0.75v2.781h-0.765v-2.756
		c0-0.31-0.03-0.541-0.093-0.696c-0.057-0.16-0.162-0.28-0.311-0.369c-0.16-0.093-0.333-0.142-0.538-0.142
		c-0.328,0-0.606,0.102-0.844,0.311c-0.237,0.203-0.354,0.595-0.354,1.182v2.47h-0.768V25.947z"/>
	<path fill="#BCBDC0" d="M75.401,25.947v-0.573c-0.286,0.449-0.711,0.676-1.266,0.676c-0.359,0-0.688-0.103-0.99-0.302
		c-0.308-0.2-0.537-0.477-0.705-0.831c-0.166-0.358-0.246-0.77-0.246-1.227c0-0.453,0.073-0.866,0.225-1.23
		c0.147-0.369,0.372-0.647,0.675-0.849c0.302-0.19,0.64-0.289,1.009-0.289c0.273,0,0.513,0.059,0.728,0.165
		c0.212,0.119,0.388,0.271,0.521,0.457v-2.243h0.763v6.246H75.401z M72.978,23.69c0,0.579,0.122,1.01,0.368,1.297
		c0.243,0.284,0.532,0.432,0.864,0.432c0.334,0,0.62-0.138,0.85-0.414c0.24-0.271,0.355-0.692,0.355-1.252
		c0-0.621-0.12-1.071-0.355-1.364c-0.244-0.288-0.535-0.436-0.883-0.436c-0.344,0-0.627,0.138-0.854,0.417
		C73.094,22.651,72.978,23.09,72.978,23.69"/>
	<path fill="#BCBDC0" d="M77.031,23.681c0-0.835,0.236-1.451,0.696-1.856c0.389-0.338,0.865-0.503,1.423-0.503
		c0.62,0,1.13,0.201,1.521,0.609c0.4,0.404,0.595,0.968,0.595,1.685c0,0.586-0.085,1.043-0.258,1.376
		c-0.178,0.334-0.431,0.591-0.769,0.777c-0.334,0.183-0.692,0.28-1.09,0.28c-0.63,0-1.141-0.209-1.532-0.613
		C77.228,25.032,77.031,24.445,77.031,23.681 M77.818,23.681c0,0.577,0.125,1.019,0.381,1.306c0.25,0.284,0.568,0.432,0.951,0.432
		c0.381,0,0.696-0.151,0.952-0.44c0.254-0.288,0.377-0.729,0.377-1.318c0-0.564-0.123-0.979-0.377-1.271
		c-0.256-0.288-0.573-0.436-0.952-0.436c-0.383,0-0.701,0.147-0.951,0.432C77.943,22.669,77.818,23.105,77.818,23.681"/>
	<path fill="#BCBDC0" d="M81.856,24.591l0.761-0.119c0.044,0.302,0.159,0.537,0.355,0.702c0.195,0.159,0.467,0.244,0.814,0.244
		c0.353,0,0.614-0.076,0.783-0.218c0.17-0.143,0.255-0.315,0.255-0.501c0-0.175-0.073-0.317-0.228-0.415
		c-0.101-0.065-0.365-0.155-0.781-0.257c-0.563-0.144-0.951-0.263-1.169-0.365c-0.218-0.106-0.377-0.248-0.493-0.435
		c-0.112-0.185-0.17-0.382-0.17-0.609c0-0.2,0.051-0.386,0.14-0.559c0.095-0.165,0.22-0.311,0.377-0.427
		c0.117-0.09,0.282-0.165,0.484-0.222c0.212-0.059,0.432-0.09,0.667-0.09c0.355,0,0.663,0.049,0.932,0.146
		c0.269,0.103,0.471,0.247,0.594,0.423c0.132,0.169,0.216,0.404,0.265,0.697l-0.746,0.102c-0.04-0.23-0.133-0.413-0.299-0.546
		c-0.165-0.129-0.39-0.195-0.689-0.195c-0.354,0-0.606,0.058-0.759,0.178c-0.146,0.116-0.222,0.249-0.222,0.405
		c0,0.102,0.031,0.188,0.089,0.269c0.066,0.082,0.165,0.152,0.299,0.206c0.076,0.026,0.304,0.089,0.674,0.194
		c0.542,0.146,0.924,0.263,1.133,0.355c0.219,0.09,0.388,0.228,0.508,0.4c0.119,0.178,0.182,0.396,0.182,0.657
		c0,0.259-0.071,0.498-0.223,0.725c-0.148,0.224-0.364,0.399-0.643,0.525c-0.281,0.119-0.601,0.186-0.957,0.186
		c-0.586,0-1.03-0.126-1.341-0.368C82.142,25.436,81.941,25.072,81.856,24.591"/>
	<polygon fill="#BCBDC0" points="89.063,25.947 89.063,19.701 93.574,19.701 93.574,20.443 89.89,20.443 89.89,22.349 
		93.339,22.349 93.339,23.078 89.89,23.078 89.89,25.205 93.718,25.205 93.718,25.947 	"/>
	<path fill="#BCBDC0" d="M97.722,25.947v-0.666c-0.351,0.506-0.827,0.769-1.431,0.769c-0.27,0-0.521-0.054-0.746-0.155
		c-0.233-0.107-0.405-0.231-0.52-0.386c-0.108-0.155-0.188-0.344-0.233-0.57c-0.034-0.151-0.049-0.386-0.049-0.719v-2.795h0.771
		v2.506c0,0.399,0.008,0.671,0.04,0.809c0.05,0.204,0.15,0.359,0.313,0.475c0.153,0.112,0.345,0.17,0.576,0.17
		s0.444-0.058,0.644-0.173c0.205-0.12,0.348-0.281,0.431-0.484c0.086-0.201,0.126-0.493,0.126-0.881v-2.421h0.767v4.522h-0.689
		V25.947z"/>
	<path fill="#BCBDC0" d="M99.602,25.947v-4.522h0.687v0.684c0.179-0.319,0.339-0.537,0.49-0.64c0.149-0.098,0.315-0.146,0.488-0.146
		c0.263,0,0.52,0.085,0.789,0.245l-0.265,0.71c-0.187-0.11-0.376-0.163-0.561-0.163c-0.163,0-0.316,0.048-0.452,0.149
		c-0.133,0.099-0.228,0.241-0.284,0.418c-0.085,0.271-0.126,0.569-0.126,0.898v2.367L99.602,25.947L99.602,25.947z"/>
	<path fill="#BCBDC0" d="M102.228,23.681c0-0.835,0.232-1.451,0.701-1.856c0.387-0.338,0.859-0.503,1.417-0.503
		c0.621,0,1.133,0.201,1.522,0.609c0.397,0.404,0.597,0.968,0.597,1.685c0,0.586-0.087,1.043-0.263,1.376
		c-0.179,0.334-0.428,0.591-0.765,0.777c-0.328,0.183-0.693,0.28-1.092,0.28c-0.636,0-1.144-0.209-1.534-0.613
		C102.423,25.032,102.228,24.445,102.228,23.681 M103.017,23.681c0,0.577,0.126,1.019,0.374,1.306
		c0.253,0.284,0.572,0.432,0.955,0.432c0.382,0,0.697-0.151,0.948-0.44c0.253-0.288,0.38-0.729,0.38-1.318
		c0-0.564-0.127-0.979-0.38-1.271c-0.254-0.288-0.57-0.436-0.948-0.436c-0.383,0-0.702,0.147-0.955,0.432
		C103.143,22.669,103.017,23.105,103.017,23.681"/>
	<path fill="#BCBDC0" d="M107.363,27.675v-6.251h0.696v0.587c0.162-0.235,0.349-0.405,0.556-0.517
		c0.208-0.114,0.46-0.173,0.755-0.173c0.386,0,0.725,0.099,1.022,0.299c0.292,0.199,0.519,0.479,0.671,0.839
		c0.144,0.359,0.222,0.759,0.222,1.187c0,0.466-0.083,0.884-0.249,1.248c-0.164,0.373-0.403,0.657-0.725,0.856
		c-0.315,0.196-0.648,0.299-0.996,0.299c-0.256,0-0.486-0.063-0.687-0.163c-0.205-0.108-0.371-0.246-0.503-0.41v2.199H107.363z
		 M108.056,23.709c0,0.576,0.115,1.012,0.353,1.287c0.234,0.28,0.52,0.423,0.854,0.423c0.343,0,0.637-0.147,0.876-0.432
		c0.241-0.287,0.361-0.741,0.361-1.345c0-0.573-0.112-1.005-0.353-1.293c-0.234-0.289-0.522-0.427-0.852-0.427
		c-0.324,0-0.614,0.15-0.861,0.453C108.183,22.681,108.056,23.126,108.056,23.709"/>
	<path fill="#BCBDC0" d="M115.301,24.491l0.791,0.093c-0.119,0.462-0.351,0.828-0.688,1.079c-0.342,0.253-0.771,0.387-1.297,0.387
		c-0.663,0-1.187-0.209-1.574-0.613c-0.385-0.414-0.577-0.981-0.577-1.715c0-0.759,0.193-1.352,0.587-1.772
		c0.391-0.418,0.898-0.627,1.524-0.627c0.604,0,1.095,0.205,1.482,0.617c0.377,0.41,0.574,0.99,0.574,1.733
		c0,0.049-0.003,0.116-0.005,0.204h-3.371c0.026,0.498,0.168,0.876,0.421,1.142c0.252,0.268,0.564,0.4,0.946,0.4
		c0.278,0,0.519-0.076,0.716-0.228C115.03,25.046,115.188,24.813,115.301,24.491 M112.791,23.251h2.522
		c-0.034-0.387-0.133-0.667-0.289-0.858c-0.247-0.292-0.565-0.443-0.954-0.443c-0.346,0-0.645,0.119-0.882,0.355
		C112.942,22.535,112.813,22.855,112.791,23.251"/>
	<path fill="#BCBDC0" d="M120.017,25.947v-0.666c-0.348,0.506-0.828,0.769-1.432,0.769c-0.268,0-0.513-0.054-0.748-0.155
		c-0.229-0.107-0.401-0.231-0.518-0.386c-0.108-0.155-0.188-0.344-0.231-0.57c-0.034-0.151-0.044-0.386-0.044-0.719v-2.795h0.764
		v2.506c0,0.399,0.013,0.671,0.046,0.809c0.047,0.204,0.148,0.359,0.309,0.475c0.155,0.112,0.349,0.17,0.577,0.17
		s0.444-0.058,0.648-0.173c0.2-0.12,0.343-0.281,0.428-0.484c0.083-0.201,0.126-0.493,0.126-0.881v-2.421h0.764v4.522h-0.689V25.947
		z"/>
	<path fill="#BCBDC0" d="M121.6,24.591l0.756-0.119c0.045,0.302,0.162,0.537,0.361,0.702c0.19,0.159,0.461,0.244,0.813,0.244
		c0.346,0,0.612-0.076,0.778-0.218c0.174-0.143,0.259-0.315,0.259-0.501c0-0.175-0.079-0.317-0.225-0.415
		c-0.106-0.065-0.368-0.155-0.786-0.257c-0.562-0.144-0.946-0.263-1.164-0.365c-0.222-0.106-0.387-0.248-0.494-0.435
		c-0.115-0.185-0.169-0.382-0.169-0.609c0-0.2,0.043-0.386,0.14-0.559c0.089-0.165,0.216-0.311,0.371-0.427
		c0.122-0.09,0.281-0.165,0.49-0.222c0.204-0.059,0.426-0.09,0.666-0.09c0.352,0,0.661,0.049,0.929,0.146
		c0.271,0.103,0.469,0.247,0.595,0.423c0.125,0.169,0.215,0.404,0.265,0.697l-0.751,0.102c-0.032-0.23-0.131-0.413-0.293-0.546
		c-0.166-0.129-0.398-0.195-0.69-0.195c-0.355,0-0.606,0.058-0.754,0.178c-0.155,0.116-0.229,0.249-0.229,0.405
		c0,0.102,0.031,0.188,0.094,0.269c0.064,0.082,0.162,0.152,0.298,0.206c0.07,0.026,0.303,0.089,0.674,0.194
		c0.543,0.146,0.922,0.263,1.137,0.355c0.213,0.09,0.379,0.228,0.501,0.4c0.123,0.178,0.185,0.396,0.185,0.657
		c0,0.259-0.075,0.498-0.222,0.725c-0.152,0.224-0.364,0.399-0.648,0.525c-0.28,0.119-0.595,0.186-0.952,0.186
		c-0.586,0-1.038-0.126-1.345-0.368C121.881,25.436,121.685,25.072,121.6,24.591"/>
	<polygon fill="#BCBDC0" points="57.561,36.405 57.561,30.164 62.074,30.164 62.074,30.9 58.387,30.9 58.387,32.812 61.838,32.812 
		61.838,33.548 58.387,33.548 58.387,35.672 62.222,35.672 62.222,36.405 	"/>
	<path fill="#BCBDC0" d="M62.954,35.05l0.76-0.116c0.044,0.302,0.159,0.538,0.355,0.702c0.192,0.159,0.464,0.239,0.812,0.239
		c0.355,0,0.613-0.069,0.786-0.212c0.17-0.146,0.252-0.312,0.252-0.508c0-0.171-0.073-0.311-0.226-0.408
		c-0.103-0.066-0.363-0.15-0.783-0.258c-0.557-0.143-0.948-0.265-1.166-0.368c-0.215-0.103-0.382-0.249-0.493-0.432
		c-0.113-0.177-0.168-0.386-0.168-0.608c0-0.195,0.047-0.386,0.138-0.556c0.093-0.173,0.218-0.314,0.377-0.43
		c0.116-0.09,0.282-0.159,0.487-0.223c0.206-0.063,0.429-0.094,0.664-0.094c0.353,0,0.663,0.054,0.932,0.157
		c0.268,0.101,0.467,0.234,0.596,0.416c0.125,0.173,0.214,0.404,0.263,0.698l-0.75,0.102c-0.036-0.23-0.129-0.413-0.295-0.547
		c-0.164-0.128-0.393-0.199-0.692-0.199c-0.352,0-0.604,0.062-0.756,0.178c-0.146,0.119-0.223,0.254-0.223,0.413
		c0,0.098,0.032,0.183,0.094,0.266c0.063,0.086,0.161,0.146,0.295,0.201c0.075,0.031,0.302,0.098,0.675,0.199
		c0.541,0.146,0.923,0.263,1.132,0.355c0.219,0.089,0.387,0.227,0.507,0.404c0.12,0.174,0.185,0.392,0.185,0.649
		c0,0.262-0.072,0.501-0.225,0.723c-0.146,0.227-0.364,0.4-0.645,0.524c-0.28,0.126-0.599,0.183-0.954,0.183
		c-0.587,0-1.031-0.119-1.343-0.364C63.238,35.894,63.041,35.535,62.954,35.05"/>
	<path fill="#BCBDC0" d="M69.29,35.72l0.114,0.676c-0.217,0.044-0.409,0.07-0.578,0.07c-0.282,0-0.497-0.048-0.65-0.137
		c-0.152-0.085-0.261-0.199-0.321-0.347c-0.063-0.144-0.093-0.439-0.093-0.897v-2.604h-0.561v-0.599h0.561v-1.115l0.759-0.467v1.582
		h0.77v0.599h-0.77v2.64c0,0.218,0.018,0.364,0.041,0.427c0.028,0.057,0.072,0.11,0.136,0.146c0.06,0.036,0.146,0.05,0.261,0.05
		C69.044,35.744,69.153,35.734,69.29,35.72"/>
	<path fill="#BCBDC0" d="M70.033,36.405v-4.522h0.689v0.685c0.179-0.315,0.341-0.529,0.487-0.63
		c0.148-0.104,0.314-0.157,0.491-0.157c0.258,0,0.52,0.085,0.785,0.25l-0.266,0.71c-0.186-0.11-0.371-0.164-0.556-0.164
		c-0.167,0-0.319,0.048-0.453,0.15c-0.136,0.104-0.228,0.235-0.284,0.418c-0.089,0.274-0.129,0.573-0.129,0.893v2.368L70.033,36.405
		L70.033,36.405z"/>
	<path fill="#BCBDC0" d="M75.907,36.405v-0.666c-0.352,0.511-0.829,0.764-1.435,0.764c-0.266,0-0.515-0.049-0.745-0.149
		c-0.231-0.104-0.399-0.23-0.516-0.385c-0.112-0.155-0.191-0.346-0.238-0.567c-0.031-0.15-0.046-0.387-0.046-0.72v-2.799h0.769v2.51
		c0,0.403,0.016,0.671,0.044,0.809c0.049,0.2,0.151,0.36,0.309,0.476c0.154,0.11,0.345,0.169,0.58,0.169
		c0.228,0,0.443-0.059,0.645-0.173c0.199-0.118,0.343-0.28,0.432-0.48c0.08-0.204,0.123-0.502,0.123-0.884v-2.426h0.766v4.522
		h-0.688V36.405z"/>
	<path fill="#BCBDC0" d="M79.468,35.72l0.11,0.676c-0.219,0.044-0.409,0.07-0.577,0.07c-0.282,0-0.497-0.048-0.653-0.137
		c-0.148-0.085-0.258-0.199-0.32-0.347c-0.062-0.144-0.093-0.439-0.093-0.897v-2.604h-0.562v-0.599h0.562v-1.115L78.7,30.3v1.582
		h0.769v0.599H78.7v2.64c0,0.218,0.007,0.364,0.039,0.427c0.027,0.057,0.071,0.11,0.134,0.146c0.057,0.036,0.146,0.05,0.258,0.05
		C79.213,35.744,79.329,35.734,79.468,35.72"/>
	<path fill="#BCBDC0" d="M83.175,36.405v-0.666c-0.349,0.511-0.829,0.764-1.429,0.764c-0.269,0-0.515-0.049-0.75-0.149
		c-0.232-0.104-0.4-0.23-0.517-0.385c-0.109-0.155-0.191-0.346-0.232-0.567c-0.033-0.15-0.05-0.387-0.05-0.72v-2.799h0.767v2.51
		c0,0.403,0.014,0.671,0.046,0.809c0.053,0.2,0.152,0.36,0.309,0.476c0.152,0.11,0.351,0.169,0.58,0.169
		c0.226,0,0.445-0.059,0.646-0.173c0.201-0.118,0.344-0.28,0.429-0.48c0.08-0.204,0.123-0.502,0.123-0.884v-2.426h0.768v4.522h-0.69
		V36.405z"/>
	<path fill="#BCBDC0" d="M85.056,36.405v-4.522h0.688v0.685c0.176-0.315,0.341-0.529,0.488-0.63
		c0.147-0.104,0.312-0.157,0.492-0.157c0.257,0,0.519,0.085,0.783,0.25l-0.259,0.71c-0.189-0.11-0.377-0.164-0.563-0.164
		c-0.17,0-0.318,0.048-0.454,0.15c-0.134,0.104-0.229,0.235-0.283,0.418c-0.086,0.274-0.129,0.573-0.129,0.893v2.368L85.056,36.405
		L85.056,36.405z"/>
	<path fill="#BCBDC0" d="M90.915,35.845c-0.284,0.244-0.556,0.412-0.821,0.515c-0.258,0.094-0.543,0.143-0.839,0.143
		c-0.498,0-0.881-0.119-1.149-0.358c-0.267-0.245-0.397-0.557-0.397-0.93c0-0.223,0.046-0.426,0.151-0.613
		c0.103-0.178,0.231-0.323,0.395-0.436c0.165-0.115,0.348-0.195,0.551-0.249c0.148-0.044,0.378-0.08,0.68-0.119
		c0.622-0.066,1.077-0.16,1.366-0.263c0.007-0.105,0.007-0.168,0.007-0.199c0-0.312-0.071-0.53-0.216-0.662
		c-0.196-0.174-0.485-0.259-0.873-0.259c-0.364,0-0.625,0.066-0.802,0.188c-0.166,0.128-0.295,0.354-0.379,0.677l-0.749-0.104
		c0.069-0.319,0.18-0.582,0.339-0.777c0.152-0.2,0.378-0.351,0.68-0.458c0.29-0.106,0.629-0.16,1.019-0.16
		c0.386,0,0.702,0.044,0.94,0.139c0.243,0.088,0.418,0.204,0.534,0.347c0.112,0.133,0.196,0.306,0.239,0.519
		c0.025,0.124,0.036,0.364,0.036,0.707v1.022c0,0.71,0.019,1.159,0.052,1.345c0.03,0.19,0.095,0.373,0.193,0.547h-0.8
		C90.988,36.245,90.938,36.058,90.915,35.845 M90.851,34.138c-0.275,0.107-0.694,0.205-1.25,0.289
		c-0.315,0.045-0.537,0.09-0.669,0.147c-0.127,0.058-0.233,0.142-0.303,0.253c-0.067,0.106-0.104,0.232-0.104,0.364
		c0,0.2,0.076,0.379,0.231,0.511c0.154,0.137,0.377,0.205,0.678,0.205c0.295,0,0.56-0.068,0.788-0.195
		c0.229-0.125,0.396-0.307,0.507-0.529c0.084-0.173,0.121-0.431,0.121-0.767v-0.278H90.851z"/>
	<path fill="#BCBDC0" d="M92.818,30.164h0.767v0.878h-0.767V30.164z M92.818,31.882h0.767v4.522h-0.767V31.882z"/>
	<path fill="#BCBDC0" d="M94.443,35.05l0.76-0.116c0.044,0.302,0.164,0.538,0.359,0.702c0.191,0.159,0.462,0.239,0.812,0.239
		c0.353,0,0.612-0.069,0.784-0.212c0.167-0.146,0.253-0.312,0.253-0.508c0-0.171-0.073-0.311-0.227-0.408
		c-0.102-0.066-0.367-0.15-0.778-0.258c-0.564-0.143-0.952-0.265-1.174-0.368c-0.215-0.103-0.378-0.249-0.491-0.432
		c-0.112-0.177-0.169-0.386-0.169-0.608c0-0.195,0.047-0.386,0.137-0.556c0.099-0.173,0.221-0.314,0.378-0.43
		c0.119-0.09,0.282-0.159,0.488-0.223c0.208-0.063,0.427-0.094,0.663-0.094c0.354,0,0.665,0.054,0.933,0.157
		c0.271,0.101,0.469,0.234,0.592,0.416c0.129,0.173,0.216,0.404,0.265,0.698l-0.746,0.102c-0.036-0.23-0.133-0.413-0.295-0.547
		c-0.169-0.128-0.394-0.199-0.695-0.199c-0.352,0-0.604,0.062-0.751,0.178c-0.15,0.119-0.229,0.254-0.229,0.413
		c0,0.098,0.035,0.183,0.1,0.266c0.058,0.086,0.156,0.146,0.289,0.201c0.076,0.031,0.306,0.098,0.676,0.199
		c0.541,0.146,0.923,0.263,1.138,0.355c0.212,0.089,0.382,0.227,0.506,0.404c0.124,0.174,0.178,0.392,0.178,0.649
		c0,0.262-0.071,0.501-0.222,0.723c-0.147,0.227-0.362,0.4-0.645,0.524c-0.281,0.126-0.6,0.183-0.955,0.183
		c-0.586,0-1.03-0.119-1.345-0.364C94.728,35.894,94.529,35.535,94.443,35.05"/>
	<path fill="#BCBDC0" d="M104.625,34.948l0.795,0.099c-0.126,0.461-0.36,0.82-0.692,1.076c-0.338,0.256-0.773,0.38-1.297,0.38
		c-0.662,0-1.187-0.204-1.573-0.608c-0.386-0.403-0.58-0.977-0.58-1.715c0-0.761,0.198-1.35,0.589-1.772
		c0.387-0.418,0.897-0.627,1.521-0.627c0.607,0,1.101,0.204,1.482,0.618s0.574,0.986,0.574,1.74c0,0.041-0.001,0.107-0.001,0.2
		h-3.372c0.026,0.499,0.169,0.881,0.422,1.146c0.249,0.259,0.564,0.391,0.939,0.391c0.286,0,0.521-0.069,0.727-0.218
		C104.353,35.507,104.515,35.272,104.625,34.948 M102.111,33.708h2.523c-0.032-0.377-0.134-0.666-0.289-0.852
		c-0.241-0.299-0.56-0.449-0.948-0.449c-0.352,0-0.648,0.119-0.887,0.355C102.271,33.003,102.139,33.317,102.111,33.708"/>
	<path fill="#BCBDC0" d="M111.738,36.405v-0.568c-0.29,0.444-0.709,0.666-1.266,0.666c-0.361,0-0.689-0.093-0.996-0.293
		c-0.297-0.2-0.532-0.476-0.701-0.835c-0.166-0.355-0.249-0.765-0.249-1.23c0-0.444,0.077-0.857,0.229-1.222
		c0.144-0.374,0.376-0.649,0.678-0.849c0.298-0.191,0.63-0.294,1.006-0.294c0.273,0,0.513,0.059,0.728,0.173
		c0.213,0.116,0.386,0.263,0.518,0.449v-2.238h0.763v6.241H111.738z M109.315,34.144c0,0.581,0.119,1.017,0.365,1.301
		c0.242,0.289,0.53,0.431,0.862,0.431c0.338,0,0.623-0.137,0.857-0.412c0.236-0.271,0.347-0.689,0.347-1.253
		c0-0.619-0.12-1.07-0.355-1.365c-0.239-0.284-0.528-0.431-0.88-0.431c-0.34,0-0.626,0.143-0.857,0.418
		C109.433,33.114,109.315,33.548,109.315,34.144"/>
	<path fill="#BCBDC0" d="M116.745,34.948l0.79,0.099c-0.119,0.461-0.354,0.82-0.692,1.076c-0.339,0.256-0.77,0.38-1.293,0.38
		c-0.661,0-1.185-0.204-1.572-0.608c-0.388-0.403-0.583-0.977-0.583-1.715c0-0.761,0.201-1.35,0.586-1.772
		c0.392-0.418,0.908-0.627,1.529-0.627c0.6,0,1.098,0.204,1.481,0.618c0.381,0.414,0.576,0.986,0.576,1.74
		c0,0.041-0.005,0.107-0.01,0.2h-3.369c0.028,0.499,0.171,0.881,0.419,1.146c0.254,0.259,0.57,0.391,0.944,0.391
		c0.285,0,0.521-0.069,0.723-0.218C116.474,35.507,116.629,35.272,116.745,34.948 M114.23,33.708h2.525
		c-0.034-0.377-0.13-0.666-0.293-0.852c-0.24-0.299-0.561-0.449-0.948-0.449c-0.354,0-0.645,0.119-0.882,0.355
		C114.386,33.003,114.256,33.317,114.23,33.708"/>
	<rect x="121.161" y="30.164" fill="#BCBDC0" width="0.823" height="6.241"/>
	<path fill="#BCBDC0" d="M123.345,36.405v-4.522h0.691v0.644c0.328-0.496,0.809-0.746,1.436-0.746c0.275,0,0.523,0.054,0.753,0.147
		c0.228,0.097,0.398,0.226,0.512,0.386c0.115,0.161,0.195,0.347,0.239,0.565c0.03,0.146,0.043,0.391,0.043,0.746v2.78h-0.767v-2.747
		c0-0.314-0.03-0.55-0.089-0.7c-0.063-0.159-0.164-0.28-0.32-0.373c-0.149-0.093-0.33-0.143-0.532-0.143
		c-0.33,0-0.608,0.106-0.844,0.315c-0.241,0.204-0.354,0.596-0.354,1.178v2.47H123.345z"/>
	<path fill="#BCBDC0" d="M129.446,36.405l-1.72-4.522h0.813l0.97,2.71c0.105,0.292,0.199,0.595,0.287,0.911
		c0.07-0.24,0.16-0.524,0.286-0.861l1.002-2.76h0.792l-1.714,4.522H129.446z"/>
	<path fill="#BCBDC0" d="M135.644,34.948l0.796,0.099c-0.123,0.461-0.358,0.82-0.693,1.076c-0.339,0.256-0.771,0.38-1.297,0.38
		c-0.658,0-1.183-0.204-1.574-0.608c-0.382-0.403-0.58-0.977-0.58-1.715c0-0.761,0.198-1.35,0.591-1.772
		c0.39-0.418,0.896-0.627,1.518-0.627c0.607,0,1.103,0.204,1.484,0.618s0.573,0.986,0.573,1.74c0,0.041,0,0.107-0.002,0.2h-3.369
		c0.026,0.499,0.169,0.881,0.418,1.146c0.253,0.259,0.573,0.391,0.948,0.391c0.279,0,0.52-0.069,0.72-0.218
		C135.375,35.507,135.528,35.272,135.644,34.948 M133.132,33.708h2.525c-0.035-0.377-0.136-0.666-0.289-0.852
		c-0.245-0.299-0.561-0.449-0.955-0.449c-0.351,0-0.64,0.119-0.885,0.355C133.289,33.003,133.156,33.317,133.132,33.708"/>
	<path fill="#BCBDC0" d="M137.095,35.05l0.757-0.116c0.039,0.302,0.159,0.538,0.355,0.702c0.193,0.159,0.463,0.239,0.813,0.239
		c0.355,0,0.61-0.069,0.783-0.212c0.172-0.146,0.255-0.312,0.255-0.508c0-0.171-0.075-0.311-0.225-0.408
		c-0.105-0.066-0.364-0.15-0.782-0.258c-0.561-0.143-0.946-0.265-1.164-0.368c-0.223-0.103-0.388-0.249-0.498-0.432
		c-0.109-0.177-0.168-0.386-0.168-0.608c0-0.195,0.043-0.386,0.142-0.556c0.089-0.173,0.212-0.314,0.372-0.43
		c0.121-0.09,0.284-0.159,0.49-0.223c0.203-0.063,0.425-0.094,0.659-0.094c0.356,0,0.668,0.054,0.936,0.157
		c0.271,0.101,0.464,0.234,0.594,0.416c0.125,0.173,0.216,0.404,0.263,0.698l-0.748,0.102c-0.036-0.23-0.133-0.413-0.298-0.547
		c-0.161-0.128-0.394-0.199-0.69-0.199c-0.351,0-0.603,0.062-0.754,0.178c-0.15,0.119-0.226,0.254-0.226,0.413
		c0,0.098,0.032,0.183,0.095,0.266c0.064,0.086,0.158,0.146,0.294,0.201c0.075,0.031,0.301,0.098,0.675,0.199
		c0.545,0.146,0.925,0.263,1.138,0.355c0.213,0.089,0.377,0.227,0.502,0.404c0.121,0.174,0.185,0.392,0.185,0.649
		c0,0.262-0.073,0.501-0.226,0.723c-0.149,0.227-0.362,0.4-0.643,0.524c-0.286,0.126-0.598,0.183-0.956,0.183
		c-0.583,0-1.031-0.119-1.342-0.364C137.379,35.894,137.181,35.535,137.095,35.05"/>
	<path fill="#BCBDC0" d="M143.432,35.72l0.105,0.676c-0.21,0.044-0.405,0.07-0.577,0.07c-0.274,0-0.488-0.048-0.644-0.137
		c-0.153-0.085-0.265-0.199-0.327-0.347c-0.06-0.144-0.091-0.439-0.091-0.897v-2.604h-0.56v-0.599h0.56v-1.115l0.765-0.467v1.582
		h0.769v0.599h-0.769v2.64c0,0.218,0.009,0.364,0.041,0.427c0.023,0.057,0.07,0.11,0.128,0.146c0.063,0.036,0.151,0.05,0.265,0.05
		C143.181,35.744,143.295,35.734,143.432,35.72"/>
	<path fill="#BCBDC0" d="M144.188,30.164h0.765v0.878h-0.765V30.164z M144.188,31.882h0.765v4.522h-0.765V31.882z"/>
	<path fill="#BCBDC0" d="M146.117,36.405v-4.522h0.685v0.64c0.143-0.227,0.332-0.405,0.566-0.542c0.235-0.129,0.506-0.2,0.804-0.2
		c0.339,0,0.613,0.071,0.826,0.209c0.215,0.143,0.366,0.333,0.453,0.587c0.362-0.528,0.822-0.796,1.396-0.796
		c0.451,0,0.793,0.124,1.035,0.373c0.241,0.249,0.361,0.631,0.361,1.151v3.101h-0.762v-2.853c0-0.302-0.026-0.523-0.074-0.66
		c-0.05-0.135-0.142-0.241-0.271-0.325c-0.127-0.08-0.284-0.125-0.457-0.125c-0.322,0-0.588,0.106-0.793,0.32
		c-0.208,0.213-0.314,0.551-0.314,1.018v2.625h-0.769v-2.94c0-0.338-0.062-0.592-0.187-0.761c-0.127-0.169-0.332-0.262-0.613-0.262
		c-0.217,0-0.412,0.058-0.594,0.179c-0.186,0.105-0.321,0.271-0.4,0.493c-0.085,0.217-0.124,0.537-0.124,0.945v2.346h-0.768V36.405z
		"/>
	<path fill="#BCBDC0" d="M156.476,34.948l0.79,0.099c-0.122,0.461-0.354,0.82-0.692,1.076c-0.339,0.256-0.771,0.38-1.294,0.38
		c-0.661,0-1.186-0.204-1.576-0.608c-0.387-0.403-0.579-0.977-0.579-1.715c0-0.761,0.197-1.35,0.586-1.772
		c0.394-0.418,0.899-0.627,1.526-0.627c0.604,0,1.099,0.204,1.482,0.618c0.378,0.414,0.573,0.986,0.573,1.74
		c0,0.041,0,0.107-0.004,0.2h-3.372c0.029,0.499,0.17,0.881,0.419,1.146c0.256,0.259,0.57,0.391,0.945,0.391
		c0.284,0,0.522-0.069,0.72-0.218C156.2,35.507,156.354,35.272,156.476,34.948 M153.959,33.708h2.524
		c-0.034-0.377-0.132-0.666-0.289-0.852c-0.242-0.299-0.563-0.449-0.95-0.449c-0.353,0-0.646,0.119-0.884,0.355
		C154.116,33.003,153.983,33.317,153.959,33.708"/>
	<path fill="#BCBDC0" d="M158.226,36.405v-4.522h0.69v0.644c0.336-0.496,0.812-0.746,1.442-0.746c0.271,0,0.523,0.054,0.75,0.147
		c0.229,0.097,0.398,0.226,0.511,0.386c0.116,0.161,0.191,0.347,0.241,0.565c0.025,0.146,0.042,0.391,0.042,0.746v2.78h-0.768
		v-2.747c0-0.314-0.03-0.55-0.093-0.7c-0.057-0.159-0.16-0.28-0.311-0.373s-0.333-0.143-0.539-0.143
		c-0.323,0-0.604,0.106-0.842,0.315c-0.236,0.204-0.356,0.596-0.356,1.178v2.47H158.226z"/>
	<path fill="#BCBDC0" d="M164.748,35.72l0.11,0.676c-0.213,0.044-0.406,0.07-0.578,0.07c-0.275,0-0.493-0.048-0.646-0.137
		c-0.152-0.085-0.259-0.199-0.323-0.347c-0.064-0.144-0.097-0.439-0.097-0.897v-2.604h-0.559v-0.599h0.559v-1.115l0.765-0.467v1.582
		h0.77v0.599h-0.77v2.64c0,0.218,0.014,0.364,0.043,0.427c0.028,0.057,0.066,0.11,0.13,0.146c0.061,0.036,0.149,0.05,0.262,0.05
		C164.496,35.744,164.612,35.734,164.748,35.72"/>
	<path fill="#BCBDC0" d="M165.215,34.144c0-0.84,0.229-1.458,0.693-1.858c0.389-0.335,0.865-0.506,1.427-0.506
		c0.62,0,1.127,0.204,1.521,0.608c0.398,0.41,0.592,0.974,0.592,1.693c0,0.578-0.085,1.039-0.258,1.369
		c-0.179,0.336-0.432,0.595-0.763,0.776c-0.335,0.187-0.699,0.275-1.093,0.275c-0.634,0-1.145-0.195-1.535-0.608
		C165.408,35.491,165.215,34.908,165.215,34.144 M166.003,34.144c0,0.581,0.121,1.012,0.376,1.301
		c0.253,0.289,0.569,0.431,0.956,0.431c0.377,0,0.692-0.142,0.947-0.431s0.379-0.733,0.379-1.323c0-0.56-0.124-0.987-0.383-1.276
		c-0.251-0.284-0.567-0.431-0.943-0.431c-0.387,0-0.703,0.143-0.956,0.431C166.124,33.134,166.003,33.566,166.003,34.144"/>
</g>
</svg>
